<mxfile host="app.diagrams.net" modified="2024-01-26T06:47:06.105Z" agent="Mozilla/5.0 (Windows NT 10.0; Win64; x64) AppleWebKit/537.36 (KHTML, like Gecko) Chrome/121.0.0.0 Safari/537.36" etag="r4W8Iz9WOxi9HbTEn9SC" version="23.0.2" type="device">
  <diagram name="Page-1" id="pJSM8IIUNJlb7iicAstB">
    <mxGraphModel dx="750" dy="398" grid="1" gridSize="10" guides="1" tooltips="1" connect="1" arrows="1" fold="1" page="1" pageScale="1" pageWidth="827" pageHeight="1169" math="0" shadow="0">
      <root>
        <mxCell id="0" />
        <mxCell id="1" parent="0" />
        <mxCell id="y3mmZExF8sbPebz6QOZb-1" value="Guest" style="shape=umlActor;verticalLabelPosition=bottom;verticalAlign=top;html=1;outlineConnect=0;" parent="1" vertex="1">
          <mxGeometry x="371" y="2121.25" width="30" height="60" as="geometry" />
        </mxCell>
        <mxCell id="y3mmZExF8sbPebz6QOZb-2" value="&lt;h1&gt;Birthday party booking for kids&lt;br&gt;&lt;/h1&gt;" style="text;html=1;strokeColor=none;fillColor=none;spacing=5;spacingTop=-20;whiteSpace=wrap;overflow=hidden;rounded=0;" parent="1" vertex="1">
          <mxGeometry x="550" y="1865" width="390" height="40" as="geometry" />
        </mxCell>
        <mxCell id="y3mmZExF8sbPebz6QOZb-3" value="View package options" style="ellipse;whiteSpace=wrap;html=1;" parent="1" vertex="1">
          <mxGeometry x="585" y="1967.5" width="100" height="60" as="geometry" />
        </mxCell>
        <mxCell id="y3mmZExF8sbPebz6QOZb-4" value="View package detail" style="ellipse;whiteSpace=wrap;html=1;" parent="1" vertex="1">
          <mxGeometry x="705" y="1967.5" width="100" height="60" as="geometry" />
        </mxCell>
        <mxCell id="y3mmZExF8sbPebz6QOZb-5" value="Admin" style="shape=umlActor;verticalLabelPosition=bottom;verticalAlign=top;html=1;outlineConnect=0;" parent="1" vertex="1">
          <mxGeometry x="371" y="2545" width="30" height="60" as="geometry" />
        </mxCell>
        <mxCell id="y3mmZExF8sbPebz6QOZb-6" value="Browse party listings" style="ellipse;whiteSpace=wrap;html=1;" parent="1" vertex="1">
          <mxGeometry x="481" y="2465" width="90" height="60" as="geometry" />
        </mxCell>
        <mxCell id="y3mmZExF8sbPebz6QOZb-7" value="Manage user lists" style="ellipse;whiteSpace=wrap;html=1;" parent="1" vertex="1">
          <mxGeometry x="481" y="2535" width="90" height="60" as="geometry" />
        </mxCell>
        <mxCell id="y3mmZExF8sbPebz6QOZb-8" value="Access Statistics Board." style="ellipse;whiteSpace=wrap;html=1;" parent="1" vertex="1">
          <mxGeometry x="481" y="2605" width="90" height="60" as="geometry" />
        </mxCell>
        <mxCell id="y3mmZExF8sbPebz6QOZb-9" value="View page&#39;s analytic" style="ellipse;whiteSpace=wrap;html=1;" parent="1" vertex="1">
          <mxGeometry x="595" y="2605" width="90" height="60" as="geometry" />
        </mxCell>
        <mxCell id="y3mmZExF8sbPebz6QOZb-10" value="Check host schedule" style="ellipse;whiteSpace=wrap;html=1;" parent="1" vertex="1">
          <mxGeometry x="465" y="1967.5" width="100" height="60" as="geometry" />
        </mxCell>
        <mxCell id="y3mmZExF8sbPebz6QOZb-11" value="Contact with host &lt;br&gt;(if possible)" style="ellipse;whiteSpace=wrap;html=1;" parent="1" vertex="1">
          <mxGeometry x="465" y="2251.25" width="100" height="60" as="geometry" />
        </mxCell>
        <mxCell id="y3mmZExF8sbPebz6QOZb-12" value="Handle system maintenance" style="ellipse;whiteSpace=wrap;html=1;" parent="1" vertex="1">
          <mxGeometry x="481" y="2395" width="90" height="60" as="geometry" />
        </mxCell>
        <mxCell id="y3mmZExF8sbPebz6QOZb-13" value="Host" style="shape=umlActor;verticalLabelPosition=bottom;verticalAlign=top;html=1;outlineConnect=0;" parent="1" vertex="1">
          <mxGeometry x="1092.5" y="2121.25" width="30" height="60" as="geometry" />
        </mxCell>
        <mxCell id="y3mmZExF8sbPebz6QOZb-14" value="Create package" style="ellipse;whiteSpace=wrap;html=1;" parent="1" vertex="1">
          <mxGeometry x="900" y="1991.25" width="100" height="60" as="geometry" />
        </mxCell>
        <mxCell id="y3mmZExF8sbPebz6QOZb-15" value="Contact with guest &lt;br&gt;(if possible)" style="ellipse;whiteSpace=wrap;html=1;" parent="1" vertex="1">
          <mxGeometry x="902.5" y="2291.25" width="97.5" height="60" as="geometry" />
        </mxCell>
        <mxCell id="y3mmZExF8sbPebz6QOZb-16" value="Resolve issue" style="ellipse;whiteSpace=wrap;html=1;" parent="1" vertex="1">
          <mxGeometry x="481" y="2675" width="90" height="60" as="geometry" />
        </mxCell>
        <mxCell id="y3mmZExF8sbPebz6QOZb-17" value="" style="endArrow=none;html=1;rounded=0;exitX=1;exitY=0.3333333333333333;exitDx=0;exitDy=0;exitPerimeter=0;entryX=0;entryY=0.5;entryDx=0;entryDy=0;" parent="1" source="y3mmZExF8sbPebz6QOZb-5" target="y3mmZExF8sbPebz6QOZb-12" edge="1">
          <mxGeometry width="50" height="50" relative="1" as="geometry">
            <mxPoint x="686" y="2661.25" as="sourcePoint" />
            <mxPoint x="481" y="2425" as="targetPoint" />
          </mxGeometry>
        </mxCell>
        <mxCell id="y3mmZExF8sbPebz6QOZb-18" value="Account" style="swimlane;childLayout=stackLayout;horizontal=1;startSize=50;horizontalStack=0;rounded=1;fontSize=14;fontStyle=0;strokeWidth=2;resizeParent=0;resizeLast=1;shadow=0;dashed=0;align=center;arcSize=4;whiteSpace=wrap;html=1;" parent="1" vertex="1">
          <mxGeometry x="600" y="825" width="160" height="140" as="geometry" />
        </mxCell>
        <mxCell id="y3mmZExF8sbPebz6QOZb-19" value="- user_id&lt;br&gt;- Email&lt;br&gt;- Password&lt;br&gt;- RoleID" style="align=left;strokeColor=none;fillColor=none;spacingLeft=4;fontSize=12;verticalAlign=top;resizable=0;rotatable=0;part=1;html=1;" parent="y3mmZExF8sbPebz6QOZb-18" vertex="1">
          <mxGeometry y="50" width="160" height="90" as="geometry" />
        </mxCell>
        <mxCell id="y3mmZExF8sbPebz6QOZb-20" value="Hosts" style="swimlane;childLayout=stackLayout;horizontal=1;startSize=50;horizontalStack=0;rounded=1;fontSize=14;fontStyle=0;strokeWidth=2;resizeParent=0;resizeLast=1;shadow=0;dashed=0;align=center;arcSize=4;whiteSpace=wrap;html=1;" parent="1" vertex="1">
          <mxGeometry x="1200" y="860" width="160" height="155" as="geometry" />
        </mxCell>
        <mxCell id="y3mmZExF8sbPebz6QOZb-21" value="- host_id&lt;br&gt;- user_id&lt;br&gt;- Name&lt;br&gt;- Phone&lt;br&gt;- RoleID" style="align=left;strokeColor=none;fillColor=none;spacingLeft=4;fontSize=12;verticalAlign=top;resizable=0;rotatable=0;part=1;html=1;" parent="y3mmZExF8sbPebz6QOZb-20" vertex="1">
          <mxGeometry y="50" width="160" height="105" as="geometry" />
        </mxCell>
        <mxCell id="y3mmZExF8sbPebz6QOZb-22" value="Guest" style="swimlane;childLayout=stackLayout;horizontal=1;startSize=50;horizontalStack=0;rounded=1;fontSize=14;fontStyle=0;strokeWidth=2;resizeParent=0;resizeLast=1;shadow=0;dashed=0;align=center;arcSize=4;whiteSpace=wrap;html=1;" parent="1" vertex="1">
          <mxGeometry x="600" y="1015" width="160" height="160" as="geometry" />
        </mxCell>
        <mxCell id="y3mmZExF8sbPebz6QOZb-23" value="- id&lt;br&gt;- user_id&lt;br&gt;- Phone&lt;br&gt;- Name&lt;br&gt;- Picture&lt;br&gt;- Gender&lt;br&gt;- RoleID" style="align=left;strokeColor=none;fillColor=none;spacingLeft=4;fontSize=12;verticalAlign=top;resizable=0;rotatable=0;part=1;html=1;" parent="y3mmZExF8sbPebz6QOZb-22" vertex="1">
          <mxGeometry y="50" width="160" height="110" as="geometry" />
        </mxCell>
        <mxCell id="y3mmZExF8sbPebz6QOZb-24" value="Cart" style="swimlane;childLayout=stackLayout;horizontal=1;startSize=50;horizontalStack=0;rounded=1;fontSize=14;fontStyle=0;strokeWidth=2;resizeParent=0;resizeLast=1;shadow=0;dashed=0;align=center;arcSize=4;whiteSpace=wrap;html=1;" parent="1" vertex="1">
          <mxGeometry x="600" y="1220" width="160" height="135" as="geometry" />
        </mxCell>
        <mxCell id="y3mmZExF8sbPebz6QOZb-25" value="- Cart_id&lt;br&gt;- GuestID&lt;br&gt;- Package_ID&lt;br&gt;- Quantity&lt;br&gt;- Total_Price" style="align=left;strokeColor=none;fillColor=none;spacingLeft=4;fontSize=12;verticalAlign=top;resizable=0;rotatable=0;part=1;html=1;" parent="y3mmZExF8sbPebz6QOZb-24" vertex="1">
          <mxGeometry y="50" width="160" height="85" as="geometry" />
        </mxCell>
        <mxCell id="y3mmZExF8sbPebz6QOZb-26" value="Bill" style="swimlane;childLayout=stackLayout;horizontal=1;startSize=50;horizontalStack=0;rounded=1;fontSize=14;fontStyle=0;strokeWidth=2;resizeParent=0;resizeLast=1;shadow=0;dashed=0;align=center;arcSize=4;whiteSpace=wrap;html=1;" parent="1" vertex="1">
          <mxGeometry x="340" y="1220" width="160" height="95" as="geometry" />
        </mxCell>
        <mxCell id="y3mmZExF8sbPebz6QOZb-27" value="- bill_id&lt;br&gt;- Cart_id" style="align=left;strokeColor=none;fillColor=none;spacingLeft=4;fontSize=12;verticalAlign=top;resizable=0;rotatable=0;part=1;html=1;" parent="y3mmZExF8sbPebz6QOZb-26" vertex="1">
          <mxGeometry y="50" width="160" height="45" as="geometry" />
        </mxCell>
        <mxCell id="y3mmZExF8sbPebz6QOZb-28" value="Service" style="swimlane;childLayout=stackLayout;horizontal=1;startSize=50;horizontalStack=0;rounded=1;fontSize=14;fontStyle=0;strokeWidth=2;resizeParent=0;resizeLast=1;shadow=0;dashed=0;align=center;arcSize=4;whiteSpace=wrap;html=1;" parent="1" vertex="1">
          <mxGeometry x="957.5" y="1315" width="165" height="170" as="geometry" />
        </mxCell>
        <mxCell id="y3mmZExF8sbPebz6QOZb-29" value="- Service_id&lt;br&gt;- facilities_id&lt;br&gt;- Name&lt;br&gt;- Price&lt;br&gt;- Picture&lt;br&gt;- Description&amp;nbsp;&lt;br&gt;" style="align=left;strokeColor=none;fillColor=none;spacingLeft=4;fontSize=12;verticalAlign=top;resizable=0;rotatable=0;part=1;html=1;" parent="y3mmZExF8sbPebz6QOZb-28" vertex="1">
          <mxGeometry y="50" width="165" height="120" as="geometry" />
        </mxCell>
        <mxCell id="y3mmZExF8sbPebz6QOZb-30" value="Package" style="swimlane;childLayout=stackLayout;horizontal=1;startSize=50;horizontalStack=0;rounded=1;fontSize=14;fontStyle=0;strokeWidth=2;resizeParent=0;resizeLast=1;shadow=0;dashed=0;align=center;arcSize=4;whiteSpace=wrap;html=1;" parent="1" vertex="1">
          <mxGeometry x="1550" y="1270" width="160" height="170" as="geometry" />
        </mxCell>
        <mxCell id="y3mmZExF8sbPebz6QOZb-31" value="- Package_id&lt;br&gt;- facilities_id&lt;br&gt;- Name&lt;br&gt;- Price&lt;br&gt;- Picture&lt;br&gt;- Descripition" style="align=left;strokeColor=none;fillColor=none;spacingLeft=4;fontSize=12;verticalAlign=top;resizable=0;rotatable=0;part=1;html=1;" parent="y3mmZExF8sbPebz6QOZb-30" vertex="1">
          <mxGeometry y="50" width="160" height="120" as="geometry" />
        </mxCell>
        <mxCell id="y3mmZExF8sbPebz6QOZb-32" value="Service_Detail" style="swimlane;childLayout=stackLayout;horizontal=1;startSize=50;horizontalStack=0;rounded=1;fontSize=14;fontStyle=0;strokeWidth=2;resizeParent=0;resizeLast=1;shadow=0;dashed=0;align=center;arcSize=4;whiteSpace=wrap;html=1;" parent="1" vertex="1">
          <mxGeometry x="595" y="1425" width="165" height="110" as="geometry" />
        </mxCell>
        <mxCell id="y3mmZExF8sbPebz6QOZb-33" value="- service_detail_id&lt;br&gt;- Cart_ID&lt;br&gt;- Service_ID" style="align=left;strokeColor=none;fillColor=none;spacingLeft=4;fontSize=12;verticalAlign=top;resizable=0;rotatable=0;part=1;html=1;" parent="y3mmZExF8sbPebz6QOZb-32" vertex="1">
          <mxGeometry y="50" width="165" height="60" as="geometry" />
        </mxCell>
        <mxCell id="y3mmZExF8sbPebz6QOZb-34" value="Payment" style="swimlane;childLayout=stackLayout;horizontal=1;startSize=50;horizontalStack=0;rounded=1;fontSize=14;fontStyle=0;strokeWidth=2;resizeParent=0;resizeLast=1;shadow=0;dashed=0;align=center;arcSize=4;whiteSpace=wrap;html=1;" parent="1" vertex="1">
          <mxGeometry x="340" y="965" width="160" height="140" as="geometry" />
        </mxCell>
        <mxCell id="y3mmZExF8sbPebz6QOZb-35" value="- payment_id&lt;br&gt;- Bill_ID&lt;br&gt;- Payment_Date&lt;br&gt;- Payment_Time&lt;br&gt;- Method" style="align=left;strokeColor=none;fillColor=none;spacingLeft=4;fontSize=12;verticalAlign=top;resizable=0;rotatable=0;part=1;html=1;" parent="y3mmZExF8sbPebz6QOZb-34" vertex="1">
          <mxGeometry y="50" width="160" height="90" as="geometry" />
        </mxCell>
        <mxCell id="y3mmZExF8sbPebz6QOZb-36" value="Feedback" style="swimlane;childLayout=stackLayout;horizontal=1;startSize=50;horizontalStack=0;rounded=1;fontSize=14;fontStyle=0;strokeWidth=2;resizeParent=0;resizeLast=1;shadow=0;dashed=0;align=center;arcSize=4;whiteSpace=wrap;html=1;" parent="1" vertex="1">
          <mxGeometry x="840" y="1015" width="160" height="137.5" as="geometry" />
        </mxCell>
        <mxCell id="y3mmZExF8sbPebz6QOZb-37" value="- feedback_id&lt;br&gt;- Service_id&lt;br&gt;- Guest_id&lt;br&gt;- Description&lt;br&gt;- Feedback_Date" style="align=left;strokeColor=none;fillColor=none;spacingLeft=4;fontSize=12;verticalAlign=top;resizable=0;rotatable=0;part=1;html=1;" parent="y3mmZExF8sbPebz6QOZb-36" vertex="1">
          <mxGeometry y="50" width="160" height="87.5" as="geometry" />
        </mxCell>
        <mxCell id="y3mmZExF8sbPebz6QOZb-38" value="Service of Package" style="swimlane;childLayout=stackLayout;horizontal=1;startSize=50;horizontalStack=0;rounded=1;fontSize=14;fontStyle=0;strokeWidth=2;resizeParent=0;resizeLast=1;shadow=0;dashed=0;align=center;arcSize=4;whiteSpace=wrap;html=1;" parent="1" vertex="1">
          <mxGeometry x="1241" y="1310" width="165" height="170" as="geometry" />
        </mxCell>
        <mxCell id="y3mmZExF8sbPebz6QOZb-39" value="- Service_Of_Package_id&lt;br&gt;- Service_id&lt;br&gt;- Package_id" style="align=left;strokeColor=none;fillColor=none;spacingLeft=4;fontSize=12;verticalAlign=top;resizable=0;rotatable=0;part=1;html=1;" parent="y3mmZExF8sbPebz6QOZb-38" vertex="1">
          <mxGeometry y="50" width="165" height="120" as="geometry" />
        </mxCell>
        <mxCell id="y3mmZExF8sbPebz6QOZb-40" value="User" style="rounded=1;arcSize=10;whiteSpace=wrap;html=1;align=center;" parent="1" vertex="1">
          <mxGeometry x="1450" y="1765" width="100" height="40" as="geometry" />
        </mxCell>
        <mxCell id="y3mmZExF8sbPebz6QOZb-41" value="IS" style="shape=rhombus;perimeter=rhombusPerimeter;whiteSpace=wrap;html=1;align=center;" parent="1" vertex="1">
          <mxGeometry x="1690" y="1757.5" width="60" height="55" as="geometry" />
        </mxCell>
        <mxCell id="y3mmZExF8sbPebz6QOZb-42" value="Admin" style="rounded=1;arcSize=10;whiteSpace=wrap;html=1;align=center;" parent="1" vertex="1">
          <mxGeometry x="1600" y="1645" width="100" height="40" as="geometry" />
        </mxCell>
        <mxCell id="y3mmZExF8sbPebz6QOZb-43" value="Host" style="rounded=1;arcSize=10;whiteSpace=wrap;html=1;align=center;" parent="1" vertex="1">
          <mxGeometry x="1850" y="1765" width="100" height="40" as="geometry" />
        </mxCell>
        <mxCell id="y3mmZExF8sbPebz6QOZb-44" value="Guest" style="rounded=1;arcSize=10;whiteSpace=wrap;html=1;align=center;" parent="1" vertex="1">
          <mxGeometry x="1950" y="1967.5" width="100" height="40" as="geometry" />
        </mxCell>
        <mxCell id="y3mmZExF8sbPebz6QOZb-45" value="" style="endArrow=none;html=1;rounded=0;entryX=1;entryY=0.5;entryDx=0;entryDy=0;exitX=0;exitY=0.5;exitDx=0;exitDy=0;" parent="1" source="y3mmZExF8sbPebz6QOZb-41" target="y3mmZExF8sbPebz6QOZb-40" edge="1">
          <mxGeometry width="50" height="50" relative="1" as="geometry">
            <mxPoint x="1430" y="1985" as="sourcePoint" />
            <mxPoint x="1480" y="1935" as="targetPoint" />
          </mxGeometry>
        </mxCell>
        <mxCell id="y3mmZExF8sbPebz6QOZb-46" value="" style="endArrow=none;html=1;rounded=0;entryX=1;entryY=0.5;entryDx=0;entryDy=0;exitX=0;exitY=0.5;exitDx=0;exitDy=0;" parent="1" source="y3mmZExF8sbPebz6QOZb-43" target="y3mmZExF8sbPebz6QOZb-41" edge="1">
          <mxGeometry width="50" height="50" relative="1" as="geometry">
            <mxPoint x="1900" y="1784.4099999999999" as="sourcePoint" />
            <mxPoint x="1810" y="1784.4099999999999" as="targetPoint" />
          </mxGeometry>
        </mxCell>
        <mxCell id="y3mmZExF8sbPebz6QOZb-47" value="" style="endArrow=none;html=1;rounded=0;entryX=0.5;entryY=1;entryDx=0;entryDy=0;exitX=0;exitY=0.5;exitDx=0;exitDy=0;edgeStyle=orthogonalEdgeStyle;" parent="1" source="y3mmZExF8sbPebz6QOZb-44" target="y3mmZExF8sbPebz6QOZb-41" edge="1">
          <mxGeometry width="50" height="50" relative="1" as="geometry">
            <mxPoint x="1940" y="1991.25" as="sourcePoint" />
            <mxPoint x="1740" y="1788.75" as="targetPoint" />
          </mxGeometry>
        </mxCell>
        <mxCell id="y3mmZExF8sbPebz6QOZb-48" value="" style="endArrow=none;html=1;rounded=0;entryX=0.5;entryY=0;entryDx=0;entryDy=0;exitX=1;exitY=0.5;exitDx=0;exitDy=0;edgeStyle=orthogonalEdgeStyle;" parent="1" source="y3mmZExF8sbPebz6QOZb-42" target="y3mmZExF8sbPebz6QOZb-41" edge="1">
          <mxGeometry width="50" height="50" relative="1" as="geometry">
            <mxPoint x="1750" y="1770" as="sourcePoint" />
            <mxPoint x="1660" y="1770" as="targetPoint" />
          </mxGeometry>
        </mxCell>
        <mxCell id="y3mmZExF8sbPebz6QOZb-49" value="Create" style="shape=rhombus;perimeter=rhombusPerimeter;whiteSpace=wrap;html=1;align=center;" parent="1" vertex="1">
          <mxGeometry x="1960" y="1655" width="70" height="50" as="geometry" />
        </mxCell>
        <mxCell id="y3mmZExF8sbPebz6QOZb-50" value="" style="fontSize=12;html=1;endArrow=ERone;endFill=1;rounded=0;entryX=0.5;entryY=0;entryDx=0;entryDy=0;exitX=0;exitY=0.5;exitDx=0;exitDy=0;edgeStyle=orthogonalEdgeStyle;" parent="1" source="y3mmZExF8sbPebz6QOZb-49" target="y3mmZExF8sbPebz6QOZb-43" edge="1">
          <mxGeometry width="100" height="100" relative="1" as="geometry">
            <mxPoint x="1830" y="2015" as="sourcePoint" />
            <mxPoint x="1930" y="1915" as="targetPoint" />
          </mxGeometry>
        </mxCell>
        <mxCell id="y3mmZExF8sbPebz6QOZb-51" value="Package" style="rounded=1;arcSize=10;whiteSpace=wrap;html=1;align=center;" parent="1" vertex="1">
          <mxGeometry x="2220" y="1660" width="100" height="40" as="geometry" />
        </mxCell>
        <mxCell id="y3mmZExF8sbPebz6QOZb-52" value="Service" style="rounded=1;arcSize=10;whiteSpace=wrap;html=1;align=center;" parent="1" vertex="1">
          <mxGeometry x="2135" y="1725" width="100" height="40" as="geometry" />
        </mxCell>
        <mxCell id="y3mmZExF8sbPebz6QOZb-53" value="" style="fontSize=12;html=1;endArrow=ERmany;rounded=0;entryX=0;entryY=0.5;entryDx=0;entryDy=0;exitX=0.944;exitY=0.499;exitDx=0;exitDy=0;exitPerimeter=0;" parent="1" source="y3mmZExF8sbPebz6QOZb-49" target="y3mmZExF8sbPebz6QOZb-51" edge="1">
          <mxGeometry width="100" height="100" relative="1" as="geometry">
            <mxPoint x="2020" y="1725" as="sourcePoint" />
            <mxPoint x="1890" y="1815" as="targetPoint" />
          </mxGeometry>
        </mxCell>
        <mxCell id="y3mmZExF8sbPebz6QOZb-54" value="" style="fontSize=12;html=1;endArrow=ERmany;rounded=0;entryX=0;entryY=0.5;entryDx=0;entryDy=0;exitX=1;exitY=0.5;exitDx=0;exitDy=0;" parent="1" source="y3mmZExF8sbPebz6QOZb-55" target="y3mmZExF8sbPebz6QOZb-52" edge="1">
          <mxGeometry width="100" height="100" relative="1" as="geometry">
            <mxPoint x="2130" y="1790" as="sourcePoint" />
            <mxPoint x="2190" y="1750" as="targetPoint" />
          </mxGeometry>
        </mxCell>
        <mxCell id="y3mmZExF8sbPebz6QOZb-55" value="Create" style="shape=rhombus;perimeter=rhombusPerimeter;whiteSpace=wrap;html=1;align=center;" parent="1" vertex="1">
          <mxGeometry x="1990" y="1720" width="70" height="50" as="geometry" />
        </mxCell>
        <mxCell id="y3mmZExF8sbPebz6QOZb-56" value="" style="fontSize=12;html=1;endArrow=ERone;endFill=1;rounded=0;entryX=0.75;entryY=0;entryDx=0;entryDy=0;exitX=0;exitY=0.5;exitDx=0;exitDy=0;edgeStyle=orthogonalEdgeStyle;" parent="1" source="y3mmZExF8sbPebz6QOZb-55" target="y3mmZExF8sbPebz6QOZb-43" edge="1">
          <mxGeometry width="100" height="100" relative="1" as="geometry">
            <mxPoint x="2060" y="1755" as="sourcePoint" />
            <mxPoint x="2010" y="1795" as="targetPoint" />
          </mxGeometry>
        </mxCell>
        <mxCell id="y3mmZExF8sbPebz6QOZb-57" value="Create" style="shape=rhombus;perimeter=rhombusPerimeter;whiteSpace=wrap;html=1;align=center;" parent="1" vertex="1">
          <mxGeometry x="2080" y="2145" width="70" height="50" as="geometry" />
        </mxCell>
        <mxCell id="y3mmZExF8sbPebz6QOZb-58" value="" style="fontSize=12;html=1;endArrow=ERone;endFill=1;rounded=0;entryX=0.5;entryY=1;entryDx=0;entryDy=0;exitX=0;exitY=0.5;exitDx=0;exitDy=0;edgeStyle=orthogonalEdgeStyle;" parent="1" source="y3mmZExF8sbPebz6QOZb-57" target="y3mmZExF8sbPebz6QOZb-44" edge="1">
          <mxGeometry width="100" height="100" relative="1" as="geometry">
            <mxPoint x="2155" y="1907.5" as="sourcePoint" />
            <mxPoint x="2070" y="1957.5" as="targetPoint" />
          </mxGeometry>
        </mxCell>
        <mxCell id="y3mmZExF8sbPebz6QOZb-59" value="FeedBack" style="rounded=1;arcSize=10;whiteSpace=wrap;html=1;align=center;" parent="1" vertex="1">
          <mxGeometry x="2390" y="2150" width="100" height="40" as="geometry" />
        </mxCell>
        <mxCell id="y3mmZExF8sbPebz6QOZb-60" value="" style="edgeStyle=entityRelationEdgeStyle;fontSize=12;html=1;endArrow=ERone;endFill=1;rounded=0;entryX=0;entryY=0.5;entryDx=0;entryDy=0;" parent="1" source="y3mmZExF8sbPebz6QOZb-57" target="y3mmZExF8sbPebz6QOZb-59" edge="1">
          <mxGeometry width="100" height="100" relative="1" as="geometry">
            <mxPoint x="1700" y="2137.5" as="sourcePoint" />
            <mxPoint x="1800" y="2037.5" as="targetPoint" />
          </mxGeometry>
        </mxCell>
        <mxCell id="y3mmZExF8sbPebz6QOZb-61" value="Add to" style="shape=rhombus;perimeter=rhombusPerimeter;whiteSpace=wrap;html=1;align=center;" parent="1" vertex="1">
          <mxGeometry x="2080" y="1865" width="50" height="50" as="geometry" />
        </mxCell>
        <mxCell id="y3mmZExF8sbPebz6QOZb-62" value="Card" style="rounded=1;arcSize=10;whiteSpace=wrap;html=1;align=center;" parent="1" vertex="1">
          <mxGeometry x="2470" y="1725" width="100" height="40" as="geometry" />
        </mxCell>
        <mxCell id="y3mmZExF8sbPebz6QOZb-63" value="Has" style="shape=rhombus;perimeter=rhombusPerimeter;whiteSpace=wrap;html=1;align=center;" parent="1" vertex="1">
          <mxGeometry x="2470" y="1655" width="50" height="50" as="geometry" />
        </mxCell>
        <mxCell id="y3mmZExF8sbPebz6QOZb-64" value="" style="fontSize=12;html=1;endArrow=ERone;endFill=1;rounded=0;entryX=1;entryY=0.5;entryDx=0;entryDy=0;exitX=0;exitY=0.5;exitDx=0;exitDy=0;edgeStyle=orthogonalEdgeStyle;" parent="1" source="y3mmZExF8sbPebz6QOZb-63" target="y3mmZExF8sbPebz6QOZb-51" edge="1">
          <mxGeometry width="100" height="100" relative="1" as="geometry">
            <mxPoint x="2260" y="1885" as="sourcePoint" />
            <mxPoint x="2360" y="1785" as="targetPoint" />
          </mxGeometry>
        </mxCell>
        <mxCell id="y3mmZExF8sbPebz6QOZb-65" value="" style="fontSize=12;html=1;endArrow=ERmany;rounded=0;entryX=0.5;entryY=0;entryDx=0;entryDy=0;exitX=1;exitY=0.5;exitDx=0;exitDy=0;exitPerimeter=0;" parent="1" source="y3mmZExF8sbPebz6QOZb-63" target="y3mmZExF8sbPebz6QOZb-62" edge="1">
          <mxGeometry width="100" height="100" relative="1" as="geometry">
            <mxPoint x="2260" y="1885" as="sourcePoint" />
            <mxPoint x="2360" y="1785" as="targetPoint" />
          </mxGeometry>
        </mxCell>
        <mxCell id="y3mmZExF8sbPebz6QOZb-66" value="have" style="shape=rhombus;perimeter=rhombusPerimeter;whiteSpace=wrap;html=1;align=center;" parent="1" vertex="1">
          <mxGeometry x="2350" y="1720" width="50" height="50" as="geometry" />
        </mxCell>
        <mxCell id="y3mmZExF8sbPebz6QOZb-67" value="" style="fontSize=12;html=1;endArrow=ERmany;rounded=0;entryX=0;entryY=0.5;entryDx=0;entryDy=0;exitX=1;exitY=0.5;exitDx=0;exitDy=0;" parent="1" source="y3mmZExF8sbPebz6QOZb-66" target="y3mmZExF8sbPebz6QOZb-62" edge="1">
          <mxGeometry width="100" height="100" relative="1" as="geometry">
            <mxPoint x="2070" y="1755" as="sourcePoint" />
            <mxPoint x="2095" y="1755" as="targetPoint" />
          </mxGeometry>
        </mxCell>
        <mxCell id="y3mmZExF8sbPebz6QOZb-68" value="" style="fontSize=12;html=1;endArrow=ERmany;rounded=0;exitX=0;exitY=0.5;exitDx=0;exitDy=0;entryX=1;entryY=0.5;entryDx=0;entryDy=0;" parent="1" source="y3mmZExF8sbPebz6QOZb-66" target="y3mmZExF8sbPebz6QOZb-52" edge="1">
          <mxGeometry width="100" height="100" relative="1" as="geometry">
            <mxPoint x="2080" y="1765" as="sourcePoint" />
            <mxPoint x="2190" y="1755" as="targetPoint" />
          </mxGeometry>
        </mxCell>
        <mxCell id="y3mmZExF8sbPebz6QOZb-69" value="" style="fontSize=12;html=1;endArrow=ERone;endFill=1;rounded=0;entryX=0.25;entryY=0;entryDx=0;entryDy=0;exitX=0;exitY=0.5;exitDx=0;exitDy=0;edgeStyle=orthogonalEdgeStyle;" parent="1" source="y3mmZExF8sbPebz6QOZb-61" target="y3mmZExF8sbPebz6QOZb-44" edge="1">
          <mxGeometry width="100" height="100" relative="1" as="geometry">
            <mxPoint x="2000" y="1755" as="sourcePoint" />
            <mxPoint x="1935" y="1775" as="targetPoint" />
          </mxGeometry>
        </mxCell>
        <mxCell id="y3mmZExF8sbPebz6QOZb-70" value="" style="fontSize=12;html=1;endArrow=ERone;endFill=1;rounded=0;entryX=0.25;entryY=1;entryDx=0;entryDy=0;exitX=1;exitY=0.5;exitDx=0;exitDy=0;edgeStyle=orthogonalEdgeStyle;" parent="1" source="y3mmZExF8sbPebz6QOZb-61" target="y3mmZExF8sbPebz6QOZb-62" edge="1">
          <mxGeometry width="100" height="100" relative="1" as="geometry">
            <mxPoint x="2010" y="1765" as="sourcePoint" />
            <mxPoint x="1945" y="1785" as="targetPoint" />
          </mxGeometry>
        </mxCell>
        <mxCell id="y3mmZExF8sbPebz6QOZb-71" value="closes order" style="shape=rhombus;perimeter=rhombusPerimeter;whiteSpace=wrap;html=1;align=center;" parent="1" vertex="1">
          <mxGeometry x="2185" y="1962.5" width="100" height="50" as="geometry" />
        </mxCell>
        <mxCell id="y3mmZExF8sbPebz6QOZb-72" value="" style="fontSize=12;html=1;endArrow=ERone;endFill=1;rounded=0;entryX=1;entryY=0.5;entryDx=0;entryDy=0;exitX=0;exitY=0.5;exitDx=0;exitDy=0;edgeStyle=orthogonalEdgeStyle;" parent="1" source="y3mmZExF8sbPebz6QOZb-71" target="y3mmZExF8sbPebz6QOZb-44" edge="1">
          <mxGeometry width="100" height="100" relative="1" as="geometry">
            <mxPoint x="2070" y="1875" as="sourcePoint" />
            <mxPoint x="1985" y="1978" as="targetPoint" />
          </mxGeometry>
        </mxCell>
        <mxCell id="y3mmZExF8sbPebz6QOZb-73" value="Bill" style="rounded=1;arcSize=10;whiteSpace=wrap;html=1;align=center;" parent="1" vertex="1">
          <mxGeometry x="2470" y="1967.5" width="100" height="40" as="geometry" />
        </mxCell>
        <mxCell id="y3mmZExF8sbPebz6QOZb-74" value="" style="edgeStyle=entityRelationEdgeStyle;fontSize=12;html=1;endArrow=ERone;endFill=1;rounded=0;entryX=0;entryY=0.5;entryDx=0;entryDy=0;exitX=1;exitY=0.5;exitDx=0;exitDy=0;" parent="1" source="y3mmZExF8sbPebz6QOZb-71" target="y3mmZExF8sbPebz6QOZb-73" edge="1">
          <mxGeometry width="100" height="100" relative="1" as="geometry">
            <mxPoint x="2180" y="1998" as="sourcePoint" />
            <mxPoint x="2250" y="1998" as="targetPoint" />
          </mxGeometry>
        </mxCell>
        <mxCell id="y3mmZExF8sbPebz6QOZb-75" value="Get" style="shape=rhombus;perimeter=rhombusPerimeter;whiteSpace=wrap;html=1;align=center;" parent="1" vertex="1">
          <mxGeometry x="2520" y="1855" width="50" height="50" as="geometry" />
        </mxCell>
        <mxCell id="y3mmZExF8sbPebz6QOZb-76" value="" style="fontSize=12;html=1;endArrow=ERone;endFill=1;rounded=0;entryX=0.75;entryY=1;entryDx=0;entryDy=0;exitX=0.5;exitY=0;exitDx=0;exitDy=0;edgeStyle=orthogonalEdgeStyle;" parent="1" source="y3mmZExF8sbPebz6QOZb-75" target="y3mmZExF8sbPebz6QOZb-62" edge="1">
          <mxGeometry width="100" height="100" relative="1" as="geometry">
            <mxPoint x="2140" y="1880" as="sourcePoint" />
            <mxPoint x="2505" y="1775" as="targetPoint" />
          </mxGeometry>
        </mxCell>
        <mxCell id="y3mmZExF8sbPebz6QOZb-77" value="" style="fontSize=12;html=1;endArrow=ERone;endFill=1;rounded=0;entryX=0.75;entryY=0;entryDx=0;entryDy=0;exitX=0.5;exitY=1;exitDx=0;exitDy=0;edgeStyle=orthogonalEdgeStyle;" parent="1" source="y3mmZExF8sbPebz6QOZb-75" target="y3mmZExF8sbPebz6QOZb-73" edge="1">
          <mxGeometry width="100" height="100" relative="1" as="geometry">
            <mxPoint x="2090" y="1880" as="sourcePoint" />
            <mxPoint x="1985" y="1978" as="targetPoint" />
          </mxGeometry>
        </mxCell>
        <mxCell id="y3mmZExF8sbPebz6QOZb-78" value="Payment" style="rounded=1;arcSize=10;whiteSpace=wrap;html=1;align=center;" parent="1" vertex="1">
          <mxGeometry x="2715" y="2075.5" width="100" height="40" as="geometry" />
        </mxCell>
        <mxCell id="y3mmZExF8sbPebz6QOZb-79" value="Get" style="shape=rhombus;perimeter=rhombusPerimeter;whiteSpace=wrap;html=1;align=center;" parent="1" vertex="1">
          <mxGeometry x="2740" y="1963" width="50" height="50" as="geometry" />
        </mxCell>
        <mxCell id="y3mmZExF8sbPebz6QOZb-80" value="" style="fontSize=12;html=1;endArrow=ERone;endFill=1;rounded=0;entryX=0.5;entryY=0;entryDx=0;entryDy=0;exitX=0.5;exitY=1;exitDx=0;exitDy=0;edgeStyle=orthogonalEdgeStyle;" parent="1" source="y3mmZExF8sbPebz6QOZb-79" target="y3mmZExF8sbPebz6QOZb-78" edge="1">
          <mxGeometry width="100" height="100" relative="1" as="geometry">
            <mxPoint x="2655" y="1925.5" as="sourcePoint" />
            <mxPoint x="2655" y="1988.5" as="targetPoint" />
          </mxGeometry>
        </mxCell>
        <mxCell id="y3mmZExF8sbPebz6QOZb-81" value="" style="fontSize=12;html=1;endArrow=ERone;endFill=1;rounded=0;entryX=1;entryY=0.5;entryDx=0;entryDy=0;exitX=0;exitY=0.5;exitDx=0;exitDy=0;edgeStyle=orthogonalEdgeStyle;" parent="1" source="y3mmZExF8sbPebz6QOZb-79" target="y3mmZExF8sbPebz6QOZb-73" edge="1">
          <mxGeometry width="100" height="100" relative="1" as="geometry">
            <mxPoint x="2195" y="1997" as="sourcePoint" />
            <mxPoint x="2060" y="1997" as="targetPoint" />
          </mxGeometry>
        </mxCell>
        <mxCell id="y3mmZExF8sbPebz6QOZb-82" value="Create" style="shape=rhombus;perimeter=rhombusPerimeter;whiteSpace=wrap;html=1;align=center;" parent="1" vertex="1">
          <mxGeometry x="1465" y="1685" width="70" height="50" as="geometry" />
        </mxCell>
        <mxCell id="y3mmZExF8sbPebz6QOZb-83" value="" style="fontSize=12;html=1;endArrow=ERmany;rounded=0;entryX=0.5;entryY=0;entryDx=0;entryDy=0;exitX=0.5;exitY=1;exitDx=0;exitDy=0;" parent="1" source="y3mmZExF8sbPebz6QOZb-82" target="y3mmZExF8sbPebz6QOZb-40" edge="1">
          <mxGeometry width="100" height="100" relative="1" as="geometry">
            <mxPoint x="2010" y="1755" as="sourcePoint" />
            <mxPoint x="2035" y="1755" as="targetPoint" />
          </mxGeometry>
        </mxCell>
        <mxCell id="y3mmZExF8sbPebz6QOZb-84" value="" style="edgeStyle=orthogonalEdgeStyle;fontSize=12;html=1;endArrow=ERone;endFill=1;rounded=0;entryX=0;entryY=0.5;entryDx=0;entryDy=0;exitX=0.5;exitY=0;exitDx=0;exitDy=0;" parent="1" source="y3mmZExF8sbPebz6QOZb-82" target="y3mmZExF8sbPebz6QOZb-42" edge="1">
          <mxGeometry width="100" height="100" relative="1" as="geometry">
            <mxPoint x="2235" y="1998" as="sourcePoint" />
            <mxPoint x="2420" y="1998" as="targetPoint" />
          </mxGeometry>
        </mxCell>
        <mxCell id="y3mmZExF8sbPebz6QOZb-85" value="Password" style="ellipse;whiteSpace=wrap;html=1;align=center;" parent="1" vertex="1">
          <mxGeometry x="1400" y="1852.5" width="100" height="40" as="geometry" />
        </mxCell>
        <mxCell id="y3mmZExF8sbPebz6QOZb-86" value="RoleID" style="ellipse;whiteSpace=wrap;html=1;align=center;" parent="1" vertex="1">
          <mxGeometry x="1540" y="1865" width="100" height="40" as="geometry" />
        </mxCell>
        <mxCell id="y3mmZExF8sbPebz6QOZb-87" value="Email" style="ellipse;whiteSpace=wrap;html=1;align=center;" parent="1" vertex="1">
          <mxGeometry x="1610" y="1825" width="100" height="40" as="geometry" />
        </mxCell>
        <mxCell id="y3mmZExF8sbPebz6QOZb-88" value="User_ID" style="ellipse;whiteSpace=wrap;html=1;align=center;fontStyle=4;" parent="1" vertex="1">
          <mxGeometry x="1300" y="1812.5" width="100" height="40" as="geometry" />
        </mxCell>
        <mxCell id="y3mmZExF8sbPebz6QOZb-89" value="" style="endArrow=none;html=1;rounded=0;entryX=0.5;entryY=1;entryDx=0;entryDy=0;exitX=1;exitY=0.5;exitDx=0;exitDy=0;" parent="1" source="y3mmZExF8sbPebz6QOZb-88" target="y3mmZExF8sbPebz6QOZb-40" edge="1">
          <mxGeometry relative="1" as="geometry">
            <mxPoint x="1190" y="1795" as="sourcePoint" />
            <mxPoint x="1350" y="1795" as="targetPoint" />
          </mxGeometry>
        </mxCell>
        <mxCell id="y3mmZExF8sbPebz6QOZb-90" value="" style="endArrow=none;html=1;rounded=0;entryX=0.5;entryY=1;entryDx=0;entryDy=0;exitX=0.5;exitY=0;exitDx=0;exitDy=0;" parent="1" source="y3mmZExF8sbPebz6QOZb-85" target="y3mmZExF8sbPebz6QOZb-40" edge="1">
          <mxGeometry relative="1" as="geometry">
            <mxPoint x="1400" y="1875" as="sourcePoint" />
            <mxPoint x="1560" y="1875" as="targetPoint" />
          </mxGeometry>
        </mxCell>
        <mxCell id="y3mmZExF8sbPebz6QOZb-91" value="" style="endArrow=none;html=1;rounded=0;entryX=0;entryY=0;entryDx=0;entryDy=0;exitX=0.5;exitY=1;exitDx=0;exitDy=0;" parent="1" source="y3mmZExF8sbPebz6QOZb-40" target="y3mmZExF8sbPebz6QOZb-87" edge="1">
          <mxGeometry relative="1" as="geometry">
            <mxPoint x="1500" y="1805" as="sourcePoint" />
            <mxPoint x="1660" y="1805" as="targetPoint" />
          </mxGeometry>
        </mxCell>
        <mxCell id="y3mmZExF8sbPebz6QOZb-92" value="" style="endArrow=none;html=1;rounded=0;entryX=0.5;entryY=1;entryDx=0;entryDy=0;exitX=0.5;exitY=0;exitDx=0;exitDy=0;" parent="1" source="y3mmZExF8sbPebz6QOZb-86" target="y3mmZExF8sbPebz6QOZb-40" edge="1">
          <mxGeometry relative="1" as="geometry">
            <mxPoint x="1190" y="1795" as="sourcePoint" />
            <mxPoint x="1350" y="1795" as="targetPoint" />
          </mxGeometry>
        </mxCell>
        <mxCell id="y3mmZExF8sbPebz6QOZb-93" value="Host_ID" style="ellipse;whiteSpace=wrap;html=1;align=center;fontStyle=4;" parent="1" vertex="1">
          <mxGeometry x="1740" y="1705" width="60" height="40" as="geometry" />
        </mxCell>
        <mxCell id="y3mmZExF8sbPebz6QOZb-94" value="Name" style="ellipse;whiteSpace=wrap;html=1;align=center;" parent="1" vertex="1">
          <mxGeometry x="1810" y="1837.5" width="60" height="40" as="geometry" />
        </mxCell>
        <mxCell id="y3mmZExF8sbPebz6QOZb-95" value="" style="endArrow=none;html=1;rounded=0;entryX=0.5;entryY=0;entryDx=0;entryDy=0;exitX=0.5;exitY=1;exitDx=0;exitDy=0;" parent="1" source="y3mmZExF8sbPebz6QOZb-119" target="y3mmZExF8sbPebz6QOZb-51" edge="1">
          <mxGeometry relative="1" as="geometry">
            <mxPoint x="2360" y="1465" as="sourcePoint" />
            <mxPoint x="2520" y="1465" as="targetPoint" />
          </mxGeometry>
        </mxCell>
        <mxCell id="y3mmZExF8sbPebz6QOZb-96" value="" style="endArrow=none;html=1;rounded=0;entryX=0.25;entryY=0;entryDx=0;entryDy=0;exitX=1;exitY=1;exitDx=0;exitDy=0;" parent="1" source="y3mmZExF8sbPebz6QOZb-93" target="y3mmZExF8sbPebz6QOZb-43" edge="1">
          <mxGeometry relative="1" as="geometry">
            <mxPoint x="1620" y="1770" as="sourcePoint" />
            <mxPoint x="1780" y="1770" as="targetPoint" />
          </mxGeometry>
        </mxCell>
        <mxCell id="y3mmZExF8sbPebz6QOZb-97" value="" style="endArrow=none;html=1;rounded=0;entryX=0.25;entryY=0;entryDx=0;entryDy=0;exitX=0.5;exitY=1;exitDx=0;exitDy=0;" parent="1" source="y3mmZExF8sbPebz6QOZb-118" target="y3mmZExF8sbPebz6QOZb-43" edge="1">
          <mxGeometry relative="1" as="geometry">
            <mxPoint x="1860" y="1735" as="sourcePoint" />
            <mxPoint x="1780" y="1796.88" as="targetPoint" />
          </mxGeometry>
        </mxCell>
        <mxCell id="y3mmZExF8sbPebz6QOZb-98" value="" style="endArrow=none;html=1;rounded=0;exitX=0.5;exitY=0;exitDx=0;exitDy=0;entryX=0.5;entryY=1;entryDx=0;entryDy=0;" parent="1" source="y3mmZExF8sbPebz6QOZb-124" target="y3mmZExF8sbPebz6QOZb-43" edge="1">
          <mxGeometry relative="1" as="geometry">
            <mxPoint x="1885" y="1865" as="sourcePoint" />
            <mxPoint x="1900" y="1805" as="targetPoint" />
          </mxGeometry>
        </mxCell>
        <mxCell id="y3mmZExF8sbPebz6QOZb-99" value="" style="endArrow=none;html=1;rounded=0;entryX=0.5;entryY=1;entryDx=0;entryDy=0;exitX=0.5;exitY=0;exitDx=0;exitDy=0;" parent="1" source="y3mmZExF8sbPebz6QOZb-94" target="y3mmZExF8sbPebz6QOZb-43" edge="1">
          <mxGeometry relative="1" as="geometry">
            <mxPoint x="1720" y="1844.38" as="sourcePoint" />
            <mxPoint x="1880" y="1844.38" as="targetPoint" />
          </mxGeometry>
        </mxCell>
        <mxCell id="y3mmZExF8sbPebz6QOZb-100" value="" style="endArrow=none;html=1;rounded=0;exitX=0.5;exitY=1;exitDx=0;exitDy=0;entryX=0.5;entryY=0;entryDx=0;entryDy=0;" parent="1" source="y3mmZExF8sbPebz6QOZb-113" target="y3mmZExF8sbPebz6QOZb-51" edge="1">
          <mxGeometry relative="1" as="geometry">
            <mxPoint x="2370" y="1475" as="sourcePoint" />
            <mxPoint x="2270" y="1665" as="targetPoint" />
          </mxGeometry>
        </mxCell>
        <mxCell id="y3mmZExF8sbPebz6QOZb-101" value="" style="endArrow=none;html=1;rounded=0;entryX=0.5;entryY=1;entryDx=0;entryDy=0;exitX=0.5;exitY=0;exitDx=0;exitDy=0;" parent="1" source="y3mmZExF8sbPebz6QOZb-129" target="y3mmZExF8sbPebz6QOZb-52" edge="1">
          <mxGeometry relative="1" as="geometry">
            <mxPoint x="1875" y="1914.44" as="sourcePoint" />
            <mxPoint x="2035" y="1914.44" as="targetPoint" />
          </mxGeometry>
        </mxCell>
        <mxCell id="y3mmZExF8sbPebz6QOZb-102" value="" style="endArrow=none;html=1;rounded=0;entryX=0.5;entryY=0;entryDx=0;entryDy=0;exitX=1;exitY=0.5;exitDx=0;exitDy=0;" parent="1" source="y3mmZExF8sbPebz6QOZb-116" target="y3mmZExF8sbPebz6QOZb-51" edge="1">
          <mxGeometry relative="1" as="geometry">
            <mxPoint x="2160" y="1635" as="sourcePoint" />
            <mxPoint x="2320" y="1635" as="targetPoint" />
          </mxGeometry>
        </mxCell>
        <mxCell id="y3mmZExF8sbPebz6QOZb-103" value="" style="endArrow=none;html=1;rounded=0;entryX=0.5;entryY=0;entryDx=0;entryDy=0;exitX=0.75;exitY=1;exitDx=0;exitDy=0;" parent="1" source="y3mmZExF8sbPebz6QOZb-44" target="y3mmZExF8sbPebz6QOZb-110" edge="1">
          <mxGeometry relative="1" as="geometry">
            <mxPoint x="1870" y="2078.75" as="sourcePoint" />
            <mxPoint x="2030" y="2078.75" as="targetPoint" />
          </mxGeometry>
        </mxCell>
        <mxCell id="y3mmZExF8sbPebz6QOZb-104" value="" style="endArrow=none;html=1;rounded=0;exitX=0.75;exitY=1;exitDx=0;exitDy=0;entryX=0.5;entryY=0;entryDx=0;entryDy=0;" parent="1" source="y3mmZExF8sbPebz6QOZb-44" target="y3mmZExF8sbPebz6QOZb-125" edge="1">
          <mxGeometry relative="1" as="geometry">
            <mxPoint x="1885" y="2065" as="sourcePoint" />
            <mxPoint x="2078.99785767223" y="2085.718543217116" as="targetPoint" />
          </mxGeometry>
        </mxCell>
        <mxCell id="y3mmZExF8sbPebz6QOZb-105" value="" style="endArrow=none;html=1;rounded=0;entryX=0;entryY=0;entryDx=0;entryDy=0;exitX=0.75;exitY=1;exitDx=0;exitDy=0;" parent="1" source="y3mmZExF8sbPebz6QOZb-44" target="y3mmZExF8sbPebz6QOZb-111" edge="1">
          <mxGeometry relative="1" as="geometry">
            <mxPoint x="1940" y="2045" as="sourcePoint" />
            <mxPoint x="2100" y="2045" as="targetPoint" />
          </mxGeometry>
        </mxCell>
        <mxCell id="y3mmZExF8sbPebz6QOZb-106" value="" style="endArrow=none;html=1;rounded=0;entryX=0;entryY=0.5;entryDx=0;entryDy=0;exitX=0.75;exitY=1;exitDx=0;exitDy=0;" parent="1" source="y3mmZExF8sbPebz6QOZb-44" target="y3mmZExF8sbPebz6QOZb-112" edge="1">
          <mxGeometry relative="1" as="geometry">
            <mxPoint x="1960" y="2035" as="sourcePoint" />
            <mxPoint x="2120" y="2035" as="targetPoint" />
          </mxGeometry>
        </mxCell>
        <mxCell id="y3mmZExF8sbPebz6QOZb-107" value="" style="endArrow=none;html=1;rounded=0;entryX=0.25;entryY=1;entryDx=0;entryDy=0;exitX=0.5;exitY=0;exitDx=0;exitDy=0;" parent="1" source="y3mmZExF8sbPebz6QOZb-109" target="y3mmZExF8sbPebz6QOZb-44" edge="1">
          <mxGeometry relative="1" as="geometry">
            <mxPoint x="1730" y="2033.75" as="sourcePoint" />
            <mxPoint x="1890" y="2033.75" as="targetPoint" />
          </mxGeometry>
        </mxCell>
        <mxCell id="y3mmZExF8sbPebz6QOZb-108" value="" style="endArrow=none;html=1;rounded=0;entryX=0.25;entryY=1;entryDx=0;entryDy=0;exitX=0.5;exitY=0;exitDx=0;exitDy=0;" parent="1" source="y3mmZExF8sbPebz6QOZb-117" target="y3mmZExF8sbPebz6QOZb-44" edge="1">
          <mxGeometry relative="1" as="geometry">
            <mxPoint x="1920" y="2095" as="sourcePoint" />
            <mxPoint x="1910" y="2114" as="targetPoint" />
          </mxGeometry>
        </mxCell>
        <mxCell id="y3mmZExF8sbPebz6QOZb-109" value="Guest_ID" style="ellipse;whiteSpace=wrap;html=1;align=center;fontStyle=4;" parent="1" vertex="1">
          <mxGeometry x="1825" y="2055" width="60" height="40" as="geometry" />
        </mxCell>
        <mxCell id="y3mmZExF8sbPebz6QOZb-110" value="Name" style="ellipse;whiteSpace=wrap;html=1;align=center;" parent="1" vertex="1">
          <mxGeometry x="2070" y="2080" width="60" height="40" as="geometry" />
        </mxCell>
        <mxCell id="y3mmZExF8sbPebz6QOZb-111" value="Picture" style="ellipse;whiteSpace=wrap;html=1;align=center;" parent="1" vertex="1">
          <mxGeometry x="2120" y="2055" width="60" height="40" as="geometry" />
        </mxCell>
        <mxCell id="y3mmZExF8sbPebz6QOZb-112" value="Gender" style="ellipse;whiteSpace=wrap;html=1;align=center;" parent="1" vertex="1">
          <mxGeometry x="2140" y="2015" width="60" height="40" as="geometry" />
        </mxCell>
        <mxCell id="y3mmZExF8sbPebz6QOZb-113" value="Name" style="ellipse;whiteSpace=wrap;html=1;align=center;" parent="1" vertex="1">
          <mxGeometry x="2275" y="1555" width="60" height="40" as="geometry" />
        </mxCell>
        <mxCell id="y3mmZExF8sbPebz6QOZb-114" value="Picture" style="ellipse;whiteSpace=wrap;html=1;align=center;" parent="1" vertex="1">
          <mxGeometry x="2330" y="1585" width="50" height="40" as="geometry" />
        </mxCell>
        <mxCell id="y3mmZExF8sbPebz6QOZb-115" value="Description" style="ellipse;whiteSpace=wrap;html=1;align=center;" parent="1" vertex="1">
          <mxGeometry x="2340" y="1625" width="70" height="40" as="geometry" />
        </mxCell>
        <mxCell id="y3mmZExF8sbPebz6QOZb-116" value="&lt;span style=&quot;color: rgb(0, 0, 0); font-family: Helvetica; font-size: 12px; font-style: normal; font-variant-ligatures: normal; font-variant-caps: normal; font-weight: 400; letter-spacing: normal; orphans: 2; text-align: center; text-indent: 0px; text-transform: none; widows: 2; word-spacing: 0px; -webkit-text-stroke-width: 0px; background-color: rgb(251, 251, 251); text-decoration-thickness: initial; text-decoration-style: initial; text-decoration-color: initial; float: none; display: inline !important;&quot;&gt;Package_ID&lt;/span&gt;" style="ellipse;whiteSpace=wrap;html=1;align=center;fontStyle=4;" parent="1" vertex="1">
          <mxGeometry x="2050" y="1630" width="90" height="35" as="geometry" />
        </mxCell>
        <mxCell id="y3mmZExF8sbPebz6QOZb-117" value="User_ID" style="ellipse;whiteSpace=wrap;html=1;align=center;" parent="1" vertex="1">
          <mxGeometry x="1900" y="2095" width="50" height="30" as="geometry" />
        </mxCell>
        <mxCell id="y3mmZExF8sbPebz6QOZb-118" value="User_ID" style="ellipse;whiteSpace=wrap;html=1;align=center;" parent="1" vertex="1">
          <mxGeometry x="1825" y="1700" width="50" height="30" as="geometry" />
        </mxCell>
        <mxCell id="y3mmZExF8sbPebz6QOZb-119" value="Host_ID" style="ellipse;whiteSpace=wrap;html=1;align=center;" parent="1" vertex="1">
          <mxGeometry x="2195" y="1555" width="70" height="40" as="geometry" />
        </mxCell>
        <mxCell id="y3mmZExF8sbPebz6QOZb-120" value="" style="endArrow=none;html=1;rounded=0;entryX=0.5;entryY=1;entryDx=0;entryDy=0;exitX=1;exitY=0;exitDx=0;exitDy=0;" parent="1" source="y3mmZExF8sbPebz6QOZb-132" target="y3mmZExF8sbPebz6QOZb-52" edge="1">
          <mxGeometry relative="1" as="geometry">
            <mxPoint x="1540" y="2003.8899999999999" as="sourcePoint" />
            <mxPoint x="1700" y="2003.8899999999999" as="targetPoint" />
          </mxGeometry>
        </mxCell>
        <mxCell id="y3mmZExF8sbPebz6QOZb-121" value="" style="endArrow=none;html=1;rounded=0;exitX=0.5;exitY=0;exitDx=0;exitDy=0;entryX=0;entryY=0.5;entryDx=0;entryDy=0;" parent="1" source="y3mmZExF8sbPebz6QOZb-51" target="y3mmZExF8sbPebz6QOZb-115" edge="1">
          <mxGeometry relative="1" as="geometry">
            <mxPoint x="2400" y="1505" as="sourcePoint" />
            <mxPoint x="2560" y="1505" as="targetPoint" />
          </mxGeometry>
        </mxCell>
        <mxCell id="y3mmZExF8sbPebz6QOZb-122" value="" style="endArrow=none;html=1;rounded=0;exitX=0.5;exitY=0;exitDx=0;exitDy=0;entryX=0;entryY=1;entryDx=0;entryDy=0;" parent="1" source="y3mmZExF8sbPebz6QOZb-51" target="y3mmZExF8sbPebz6QOZb-114" edge="1">
          <mxGeometry relative="1" as="geometry">
            <mxPoint x="2410" y="1515" as="sourcePoint" />
            <mxPoint x="2570" y="1515" as="targetPoint" />
          </mxGeometry>
        </mxCell>
        <mxCell id="y3mmZExF8sbPebz6QOZb-123" value="" style="endArrow=none;html=1;rounded=0;exitX=1;exitY=1;exitDx=0;exitDy=0;entryX=0.5;entryY=0;entryDx=0;entryDy=0;" parent="1" source="y3mmZExF8sbPebz6QOZb-126" target="y3mmZExF8sbPebz6QOZb-51" edge="1">
          <mxGeometry relative="1" as="geometry">
            <mxPoint x="2295" y="1604.9999999999998" as="sourcePoint" />
            <mxPoint x="2270" y="1655" as="targetPoint" />
          </mxGeometry>
        </mxCell>
        <mxCell id="y3mmZExF8sbPebz6QOZb-124" value="Phone" style="ellipse;shape=doubleEllipse;margin=3;whiteSpace=wrap;html=1;align=center;" parent="1" vertex="1">
          <mxGeometry x="1885" y="1852.5" width="70" height="40" as="geometry" />
        </mxCell>
        <mxCell id="y3mmZExF8sbPebz6QOZb-125" value="Phone" style="ellipse;shape=doubleEllipse;margin=3;whiteSpace=wrap;html=1;align=center;" parent="1" vertex="1">
          <mxGeometry x="2010" y="2105" width="70" height="40" as="geometry" />
        </mxCell>
        <mxCell id="y3mmZExF8sbPebz6QOZb-126" value="Price" style="ellipse;shape=doubleEllipse;margin=3;whiteSpace=wrap;html=1;align=center;" parent="1" vertex="1">
          <mxGeometry x="2135" y="1565" width="50" height="40" as="geometry" />
        </mxCell>
        <mxCell id="y3mmZExF8sbPebz6QOZb-127" value="Host_ID" style="ellipse;whiteSpace=wrap;html=1;align=center;" parent="1" vertex="1">
          <mxGeometry x="2152.5" y="1845" width="65" height="40" as="geometry" />
        </mxCell>
        <mxCell id="y3mmZExF8sbPebz6QOZb-128" value="Name" style="ellipse;whiteSpace=wrap;html=1;align=center;" parent="1" vertex="1">
          <mxGeometry x="2220" y="1825" width="55" height="40" as="geometry" />
        </mxCell>
        <mxCell id="y3mmZExF8sbPebz6QOZb-129" value="Price" style="ellipse;shape=doubleEllipse;margin=3;whiteSpace=wrap;html=1;align=center;" parent="1" vertex="1">
          <mxGeometry x="2110" y="1825" width="50" height="40" as="geometry" />
        </mxCell>
        <mxCell id="y3mmZExF8sbPebz6QOZb-130" value="Picture" style="ellipse;whiteSpace=wrap;html=1;align=center;" parent="1" vertex="1">
          <mxGeometry x="2265" y="1797.5" width="55" height="40" as="geometry" />
        </mxCell>
        <mxCell id="y3mmZExF8sbPebz6QOZb-131" value="Description" style="ellipse;whiteSpace=wrap;html=1;align=center;" parent="1" vertex="1">
          <mxGeometry x="2270" y="1757.5" width="70" height="40" as="geometry" />
        </mxCell>
        <mxCell id="y3mmZExF8sbPebz6QOZb-132" value="Service_ID" style="ellipse;whiteSpace=wrap;html=1;align=center;fontStyle=4;" parent="1" vertex="1">
          <mxGeometry x="2030" y="1770" width="70" height="40" as="geometry" />
        </mxCell>
        <mxCell id="y3mmZExF8sbPebz6QOZb-133" value="" style="endArrow=none;html=1;rounded=0;entryX=0;entryY=0.5;entryDx=0;entryDy=0;exitX=0.5;exitY=1;exitDx=0;exitDy=0;" parent="1" source="y3mmZExF8sbPebz6QOZb-52" target="y3mmZExF8sbPebz6QOZb-131" edge="1">
          <mxGeometry relative="1" as="geometry">
            <mxPoint x="1510" y="1993.8899999999999" as="sourcePoint" />
            <mxPoint x="1670" y="1994" as="targetPoint" />
          </mxGeometry>
        </mxCell>
        <mxCell id="y3mmZExF8sbPebz6QOZb-134" value="" style="endArrow=none;html=1;rounded=0;entryX=0;entryY=0.5;entryDx=0;entryDy=0;exitX=0.5;exitY=1;exitDx=0;exitDy=0;" parent="1" source="y3mmZExF8sbPebz6QOZb-52" target="y3mmZExF8sbPebz6QOZb-130" edge="1">
          <mxGeometry relative="1" as="geometry">
            <mxPoint x="2190" y="1765" as="sourcePoint" />
            <mxPoint x="1680" y="2003.8899999999999" as="targetPoint" />
          </mxGeometry>
        </mxCell>
        <mxCell id="y3mmZExF8sbPebz6QOZb-135" value="" style="endArrow=none;html=1;rounded=0;entryX=0.5;entryY=0;entryDx=0;entryDy=0;exitX=0.5;exitY=1;exitDx=0;exitDy=0;" parent="1" source="y3mmZExF8sbPebz6QOZb-52" target="y3mmZExF8sbPebz6QOZb-127" edge="1">
          <mxGeometry relative="1" as="geometry">
            <mxPoint x="2185" y="1765" as="sourcePoint" />
            <mxPoint x="1690" y="2013.8899999999999" as="targetPoint" />
          </mxGeometry>
        </mxCell>
        <mxCell id="y3mmZExF8sbPebz6QOZb-136" value="" style="endArrow=none;html=1;rounded=0;entryX=0.5;entryY=0;entryDx=0;entryDy=0;exitX=0.5;exitY=1;exitDx=0;exitDy=0;" parent="1" source="y3mmZExF8sbPebz6QOZb-52" target="y3mmZExF8sbPebz6QOZb-128" edge="1">
          <mxGeometry relative="1" as="geometry">
            <mxPoint x="2120" y="1715" as="sourcePoint" />
            <mxPoint x="1700" y="2023.8899999999999" as="targetPoint" />
          </mxGeometry>
        </mxCell>
        <mxCell id="y3mmZExF8sbPebz6QOZb-137" value="" style="endArrow=none;html=1;rounded=0;entryX=0;entryY=1;entryDx=0;entryDy=0;exitX=1;exitY=0.5;exitDx=0;exitDy=0;" parent="1" source="y3mmZExF8sbPebz6QOZb-62" target="y3mmZExF8sbPebz6QOZb-139" edge="1">
          <mxGeometry relative="1" as="geometry">
            <mxPoint x="1550" y="2033.8899999999999" as="sourcePoint" />
            <mxPoint x="1710" y="2033.8899999999999" as="targetPoint" />
          </mxGeometry>
        </mxCell>
        <mxCell id="y3mmZExF8sbPebz6QOZb-138" value="" style="endArrow=none;html=1;rounded=0;entryX=0;entryY=0.5;entryDx=0;entryDy=0;exitX=1;exitY=0.5;exitDx=0;exitDy=0;" parent="1" source="y3mmZExF8sbPebz6QOZb-62" target="y3mmZExF8sbPebz6QOZb-140" edge="1">
          <mxGeometry relative="1" as="geometry">
            <mxPoint x="1560" y="2043.8899999999999" as="sourcePoint" />
            <mxPoint x="1720" y="2043.8899999999999" as="targetPoint" />
          </mxGeometry>
        </mxCell>
        <mxCell id="y3mmZExF8sbPebz6QOZb-139" value="Total_price" style="ellipse;whiteSpace=wrap;html=1;align=center;" parent="1" vertex="1">
          <mxGeometry x="2620" y="1620" width="80" height="50" as="geometry" />
        </mxCell>
        <mxCell id="y3mmZExF8sbPebz6QOZb-140" value="Card_ID" style="ellipse;whiteSpace=wrap;html=1;align=center;fontStyle=4;" parent="1" vertex="1">
          <mxGeometry x="2635" y="1797.5" width="80" height="40" as="geometry" />
        </mxCell>
        <mxCell id="y3mmZExF8sbPebz6QOZb-141" value="Guest_ID" style="ellipse;whiteSpace=wrap;html=1;align=center;" parent="1" vertex="1">
          <mxGeometry x="2670" y="1717.5" width="70" height="40" as="geometry" />
        </mxCell>
        <mxCell id="y3mmZExF8sbPebz6QOZb-142" value="" style="endArrow=none;html=1;rounded=0;entryX=0;entryY=0.5;entryDx=0;entryDy=0;exitX=1;exitY=0.5;exitDx=0;exitDy=0;" parent="1" source="y3mmZExF8sbPebz6QOZb-62" target="y3mmZExF8sbPebz6QOZb-141" edge="1">
          <mxGeometry relative="1" as="geometry">
            <mxPoint x="2600" y="1745" as="sourcePoint" />
            <mxPoint x="1610" y="1885" as="targetPoint" />
          </mxGeometry>
        </mxCell>
        <mxCell id="y3mmZExF8sbPebz6QOZb-143" style="edgeStyle=none;rounded=0;orthogonalLoop=1;jettySize=auto;html=1;entryX=1;entryY=0.5;entryDx=0;entryDy=0;" parent="1" source="y3mmZExF8sbPebz6QOZb-62" target="y3mmZExF8sbPebz6QOZb-62" edge="1">
          <mxGeometry relative="1" as="geometry" />
        </mxCell>
        <mxCell id="y3mmZExF8sbPebz6QOZb-144" value="Total_price" style="ellipse;whiteSpace=wrap;html=1;align=center;" parent="1" vertex="1">
          <mxGeometry x="2590" y="2007.5" width="80" height="47.5" as="geometry" />
        </mxCell>
        <mxCell id="y3mmZExF8sbPebz6QOZb-145" value="Card_ID" style="ellipse;whiteSpace=wrap;html=1;align=center;" parent="1" vertex="1">
          <mxGeometry x="2550" y="2055" width="70" height="40" as="geometry" />
        </mxCell>
        <mxCell id="y3mmZExF8sbPebz6QOZb-146" value="Guest_ID" style="ellipse;whiteSpace=wrap;html=1;align=center;" parent="1" vertex="1">
          <mxGeometry x="2480" y="2080" width="70" height="40" as="geometry" />
        </mxCell>
        <mxCell id="y3mmZExF8sbPebz6QOZb-147" value="Bill_ID" style="ellipse;whiteSpace=wrap;html=1;align=center;fontStyle=4;" parent="1" vertex="1">
          <mxGeometry x="2380" y="2025" width="70" height="40" as="geometry" />
        </mxCell>
        <mxCell id="y3mmZExF8sbPebz6QOZb-148" value="" style="endArrow=none;html=1;rounded=0;entryX=0;entryY=0.5;entryDx=0;entryDy=0;exitX=0.5;exitY=1;exitDx=0;exitDy=0;" parent="1" source="y3mmZExF8sbPebz6QOZb-59" target="y3mmZExF8sbPebz6QOZb-156" edge="1">
          <mxGeometry relative="1" as="geometry">
            <mxPoint x="2440" y="2195" as="sourcePoint" />
            <mxPoint x="1740" y="2063.89" as="targetPoint" />
          </mxGeometry>
        </mxCell>
        <mxCell id="y3mmZExF8sbPebz6QOZb-149" value="" style="endArrow=none;html=1;rounded=0;entryX=1;entryY=0.5;entryDx=0;entryDy=0;exitX=0.5;exitY=1;exitDx=0;exitDy=0;" parent="1" source="y3mmZExF8sbPebz6QOZb-73" target="y3mmZExF8sbPebz6QOZb-147" edge="1">
          <mxGeometry relative="1" as="geometry">
            <mxPoint x="1590" y="2073.89" as="sourcePoint" />
            <mxPoint x="1750" y="2073.89" as="targetPoint" />
          </mxGeometry>
        </mxCell>
        <mxCell id="y3mmZExF8sbPebz6QOZb-150" value="" style="endArrow=none;html=1;rounded=0;entryX=0.5;entryY=0;entryDx=0;entryDy=0;exitX=0.5;exitY=1;exitDx=0;exitDy=0;" parent="1" source="y3mmZExF8sbPebz6QOZb-73" target="y3mmZExF8sbPebz6QOZb-146" edge="1">
          <mxGeometry relative="1" as="geometry">
            <mxPoint x="1600" y="2083.89" as="sourcePoint" />
            <mxPoint x="1760" y="2083.89" as="targetPoint" />
          </mxGeometry>
        </mxCell>
        <mxCell id="y3mmZExF8sbPebz6QOZb-151" value="" style="endArrow=none;html=1;rounded=0;entryX=0.5;entryY=0;entryDx=0;entryDy=0;exitX=0.5;exitY=1;exitDx=0;exitDy=0;" parent="1" source="y3mmZExF8sbPebz6QOZb-73" target="y3mmZExF8sbPebz6QOZb-145" edge="1">
          <mxGeometry relative="1" as="geometry">
            <mxPoint x="1610" y="2093.89" as="sourcePoint" />
            <mxPoint x="1770" y="2093.89" as="targetPoint" />
          </mxGeometry>
        </mxCell>
        <mxCell id="y3mmZExF8sbPebz6QOZb-152" value="" style="endArrow=none;html=1;rounded=0;entryX=0;entryY=0.5;entryDx=0;entryDy=0;exitX=0.5;exitY=1;exitDx=0;exitDy=0;" parent="1" source="y3mmZExF8sbPebz6QOZb-73" target="y3mmZExF8sbPebz6QOZb-144" edge="1">
          <mxGeometry relative="1" as="geometry">
            <mxPoint x="2260" y="2105" as="sourcePoint" />
            <mxPoint x="2420" y="2105" as="targetPoint" />
          </mxGeometry>
        </mxCell>
        <mxCell id="y3mmZExF8sbPebz6QOZb-153" value="Feedback_ID" style="ellipse;whiteSpace=wrap;html=1;align=center;fontStyle=4;" parent="1" vertex="1">
          <mxGeometry x="2250" y="2190" width="90" height="40" as="geometry" />
        </mxCell>
        <mxCell id="y3mmZExF8sbPebz6QOZb-154" value="Guest_ID" style="ellipse;whiteSpace=wrap;html=1;align=center;" parent="1" vertex="1">
          <mxGeometry x="2360" y="2235" width="70" height="40" as="geometry" />
        </mxCell>
        <mxCell id="y3mmZExF8sbPebz6QOZb-155" value="Description" style="ellipse;whiteSpace=wrap;html=1;align=center;" parent="1" vertex="1">
          <mxGeometry x="2470" y="2235" width="70" height="40" as="geometry" />
        </mxCell>
        <mxCell id="y3mmZExF8sbPebz6QOZb-156" value="Feedback_date" style="ellipse;whiteSpace=wrap;html=1;align=center;" parent="1" vertex="1">
          <mxGeometry x="2535" y="2190" width="100" height="40" as="geometry" />
        </mxCell>
        <mxCell id="y3mmZExF8sbPebz6QOZb-157" value="" style="endArrow=none;html=1;rounded=0;entryX=0;entryY=0;entryDx=0;entryDy=0;exitX=0.5;exitY=1;exitDx=0;exitDy=0;" parent="1" source="y3mmZExF8sbPebz6QOZb-59" target="y3mmZExF8sbPebz6QOZb-155" edge="1">
          <mxGeometry relative="1" as="geometry">
            <mxPoint x="1590" y="2073.89" as="sourcePoint" />
            <mxPoint x="1750" y="2073.89" as="targetPoint" />
          </mxGeometry>
        </mxCell>
        <mxCell id="y3mmZExF8sbPebz6QOZb-158" value="" style="endArrow=none;html=1;rounded=0;entryX=0.5;entryY=0;entryDx=0;entryDy=0;exitX=0.5;exitY=1;exitDx=0;exitDy=0;" parent="1" source="y3mmZExF8sbPebz6QOZb-59" target="y3mmZExF8sbPebz6QOZb-154" edge="1">
          <mxGeometry relative="1" as="geometry">
            <mxPoint x="1600" y="2083.89" as="sourcePoint" />
            <mxPoint x="1760" y="2083.89" as="targetPoint" />
          </mxGeometry>
        </mxCell>
        <mxCell id="y3mmZExF8sbPebz6QOZb-159" value="" style="endArrow=none;html=1;rounded=0;entryX=0.5;entryY=1;entryDx=0;entryDy=0;exitX=1;exitY=0.5;exitDx=0;exitDy=0;" parent="1" source="y3mmZExF8sbPebz6QOZb-153" target="y3mmZExF8sbPebz6QOZb-59" edge="1">
          <mxGeometry relative="1" as="geometry">
            <mxPoint x="1610" y="2093.89" as="sourcePoint" />
            <mxPoint x="1770" y="2093.89" as="targetPoint" />
          </mxGeometry>
        </mxCell>
        <mxCell id="y3mmZExF8sbPebz6QOZb-160" value="" style="endArrow=none;html=1;rounded=0;exitX=0.996;exitY=0.314;exitDx=0;exitDy=0;entryX=0;entryY=0.25;entryDx=0;entryDy=0;exitPerimeter=0;" parent="1" source="y3mmZExF8sbPebz6QOZb-19" target="y3mmZExF8sbPebz6QOZb-20" edge="1">
          <mxGeometry relative="1" as="geometry">
            <mxPoint x="890" y="845" as="sourcePoint" />
            <mxPoint x="1050" y="845" as="targetPoint" />
          </mxGeometry>
        </mxCell>
        <mxCell id="y3mmZExF8sbPebz6QOZb-161" value="1" style="edgeLabel;resizable=0;html=1;align=left;verticalAlign=bottom;" parent="y3mmZExF8sbPebz6QOZb-160" connectable="0" vertex="1">
          <mxGeometry x="-1" relative="1" as="geometry" />
        </mxCell>
        <mxCell id="y3mmZExF8sbPebz6QOZb-162" value="1" style="edgeLabel;resizable=0;html=1;align=right;verticalAlign=bottom;" parent="y3mmZExF8sbPebz6QOZb-160" connectable="0" vertex="1">
          <mxGeometry x="1" relative="1" as="geometry" />
        </mxCell>
        <mxCell id="y3mmZExF8sbPebz6QOZb-169" value="" style="endArrow=none;html=1;rounded=0;exitX=1;exitY=0.25;exitDx=0;exitDy=0;entryX=0;entryY=0.25;entryDx=0;entryDy=0;" parent="1" source="y3mmZExF8sbPebz6QOZb-28" target="y3mmZExF8sbPebz6QOZb-38" edge="1">
          <mxGeometry relative="1" as="geometry">
            <mxPoint x="1250" y="1025" as="sourcePoint" />
            <mxPoint x="1114" y="1185" as="targetPoint" />
          </mxGeometry>
        </mxCell>
        <mxCell id="y3mmZExF8sbPebz6QOZb-170" value="1" style="edgeLabel;resizable=0;html=1;align=left;verticalAlign=bottom;" parent="y3mmZExF8sbPebz6QOZb-169" connectable="0" vertex="1">
          <mxGeometry x="-1" relative="1" as="geometry">
            <mxPoint y="-2" as="offset" />
          </mxGeometry>
        </mxCell>
        <mxCell id="y3mmZExF8sbPebz6QOZb-171" value="n" style="edgeLabel;resizable=0;html=1;align=right;verticalAlign=bottom;" parent="y3mmZExF8sbPebz6QOZb-169" connectable="0" vertex="1">
          <mxGeometry x="1" relative="1" as="geometry">
            <mxPoint x="-4" as="offset" />
          </mxGeometry>
        </mxCell>
        <mxCell id="y3mmZExF8sbPebz6QOZb-172" value="" style="endArrow=none;html=1;rounded=0;exitX=0;exitY=0.25;exitDx=0;exitDy=0;entryX=1;entryY=0.25;entryDx=0;entryDy=0;" parent="1" source="y3mmZExF8sbPebz6QOZb-31" target="y3mmZExF8sbPebz6QOZb-38" edge="1">
          <mxGeometry relative="1" as="geometry">
            <mxPoint x="1155" y="1228" as="sourcePoint" />
            <mxPoint x="1220" y="1228" as="targetPoint" />
            <Array as="points">
              <mxPoint x="1510" y="1353" />
            </Array>
          </mxGeometry>
        </mxCell>
        <mxCell id="y3mmZExF8sbPebz6QOZb-173" value="1" style="edgeLabel;resizable=0;html=1;align=left;verticalAlign=bottom;" parent="y3mmZExF8sbPebz6QOZb-172" connectable="0" vertex="1">
          <mxGeometry x="-1" relative="1" as="geometry">
            <mxPoint x="-15" y="-2" as="offset" />
          </mxGeometry>
        </mxCell>
        <mxCell id="y3mmZExF8sbPebz6QOZb-174" value="n" style="edgeLabel;resizable=0;html=1;align=right;verticalAlign=bottom;" parent="y3mmZExF8sbPebz6QOZb-172" connectable="0" vertex="1">
          <mxGeometry x="1" relative="1" as="geometry">
            <mxPoint x="15" as="offset" />
          </mxGeometry>
        </mxCell>
        <mxCell id="y3mmZExF8sbPebz6QOZb-175" value="" style="endArrow=none;html=1;rounded=0;exitX=1.014;exitY=0.324;exitDx=0;exitDy=0;entryX=0.5;entryY=0;entryDx=0;entryDy=0;exitPerimeter=0;" parent="1" source="y3mmZExF8sbPebz6QOZb-36" target="y3mmZExF8sbPebz6QOZb-28" edge="1">
          <mxGeometry relative="1" as="geometry">
            <mxPoint x="1250" y="1025" as="sourcePoint" />
            <mxPoint x="1114" y="1185" as="targetPoint" />
            <Array as="points">
              <mxPoint x="1040" y="1060" />
            </Array>
          </mxGeometry>
        </mxCell>
        <mxCell id="y3mmZExF8sbPebz6QOZb-176" value="n" style="edgeLabel;resizable=0;html=1;align=left;verticalAlign=bottom;" parent="y3mmZExF8sbPebz6QOZb-175" connectable="0" vertex="1">
          <mxGeometry x="-1" relative="1" as="geometry">
            <mxPoint x="10" y="-5" as="offset" />
          </mxGeometry>
        </mxCell>
        <mxCell id="y3mmZExF8sbPebz6QOZb-177" value="1" style="edgeLabel;resizable=0;html=1;align=right;verticalAlign=bottom;" parent="y3mmZExF8sbPebz6QOZb-175" connectable="0" vertex="1">
          <mxGeometry x="1" relative="1" as="geometry">
            <mxPoint x="-4" as="offset" />
          </mxGeometry>
        </mxCell>
        <mxCell id="y3mmZExF8sbPebz6QOZb-178" value="" style="endArrow=none;html=1;rounded=0;exitX=1;exitY=0;exitDx=0;exitDy=0;entryX=0;entryY=0;entryDx=0;entryDy=0;" parent="1" source="y3mmZExF8sbPebz6QOZb-23" target="y3mmZExF8sbPebz6QOZb-37" edge="1">
          <mxGeometry relative="1" as="geometry">
            <mxPoint x="1010" y="1075" as="sourcePoint" />
            <mxPoint x="1010" y="1115" as="targetPoint" />
          </mxGeometry>
        </mxCell>
        <mxCell id="y3mmZExF8sbPebz6QOZb-179" value="1" style="edgeLabel;resizable=0;html=1;align=left;verticalAlign=bottom;" parent="y3mmZExF8sbPebz6QOZb-178" connectable="0" vertex="1">
          <mxGeometry x="-1" relative="1" as="geometry">
            <mxPoint y="20" as="offset" />
          </mxGeometry>
        </mxCell>
        <mxCell id="y3mmZExF8sbPebz6QOZb-180" value="n" style="edgeLabel;resizable=0;html=1;align=right;verticalAlign=bottom;" parent="y3mmZExF8sbPebz6QOZb-178" connectable="0" vertex="1">
          <mxGeometry x="1" relative="1" as="geometry">
            <mxPoint x="-4" as="offset" />
          </mxGeometry>
        </mxCell>
        <mxCell id="y3mmZExF8sbPebz6QOZb-181" value="" style="endArrow=none;html=1;rounded=0;exitX=0.5;exitY=1;exitDx=0;exitDy=0;entryX=0.5;entryY=0;entryDx=0;entryDy=0;" parent="1" source="y3mmZExF8sbPebz6QOZb-19" target="y3mmZExF8sbPebz6QOZb-22" edge="1">
          <mxGeometry relative="1" as="geometry">
            <mxPoint x="769" y="913" as="sourcePoint" />
            <mxPoint x="1210" y="909" as="targetPoint" />
          </mxGeometry>
        </mxCell>
        <mxCell id="y3mmZExF8sbPebz6QOZb-182" value="1" style="edgeLabel;resizable=0;html=1;align=left;verticalAlign=bottom;" parent="y3mmZExF8sbPebz6QOZb-181" connectable="0" vertex="1">
          <mxGeometry x="-1" relative="1" as="geometry">
            <mxPoint x="-10" y="20" as="offset" />
          </mxGeometry>
        </mxCell>
        <mxCell id="y3mmZExF8sbPebz6QOZb-183" value="1" style="edgeLabel;resizable=0;html=1;align=right;verticalAlign=bottom;" parent="y3mmZExF8sbPebz6QOZb-181" connectable="0" vertex="1">
          <mxGeometry x="1" relative="1" as="geometry" />
        </mxCell>
        <mxCell id="y3mmZExF8sbPebz6QOZb-184" value="" style="endArrow=none;html=1;rounded=0;exitX=0.5;exitY=0;exitDx=0;exitDy=0;entryX=0.5;entryY=1;entryDx=0;entryDy=0;" parent="1" source="y3mmZExF8sbPebz6QOZb-26" target="y3mmZExF8sbPebz6QOZb-34" edge="1">
          <mxGeometry relative="1" as="geometry">
            <mxPoint x="470" y="1165" as="sourcePoint" />
            <mxPoint x="550" y="1165" as="targetPoint" />
          </mxGeometry>
        </mxCell>
        <mxCell id="y3mmZExF8sbPebz6QOZb-185" value="1" style="edgeLabel;resizable=0;html=1;align=left;verticalAlign=bottom;" parent="y3mmZExF8sbPebz6QOZb-184" connectable="0" vertex="1">
          <mxGeometry x="-1" relative="1" as="geometry">
            <mxPoint y="-5" as="offset" />
          </mxGeometry>
        </mxCell>
        <mxCell id="y3mmZExF8sbPebz6QOZb-186" value="1" style="edgeLabel;resizable=0;html=1;align=right;verticalAlign=bottom;" parent="y3mmZExF8sbPebz6QOZb-184" connectable="0" vertex="1">
          <mxGeometry x="1" relative="1" as="geometry">
            <mxPoint x="10" y="20" as="offset" />
          </mxGeometry>
        </mxCell>
        <mxCell id="y3mmZExF8sbPebz6QOZb-187" value="" style="endArrow=none;html=1;rounded=0;exitX=0.5;exitY=0;exitDx=0;exitDy=0;entryX=0.5;entryY=1;entryDx=0;entryDy=0;" parent="1" source="y3mmZExF8sbPebz6QOZb-24" target="y3mmZExF8sbPebz6QOZb-23" edge="1">
          <mxGeometry relative="1" as="geometry">
            <mxPoint x="430" y="1230" as="sourcePoint" />
            <mxPoint x="430" y="1155" as="targetPoint" />
          </mxGeometry>
        </mxCell>
        <mxCell id="y3mmZExF8sbPebz6QOZb-188" value="n" style="edgeLabel;resizable=0;html=1;align=left;verticalAlign=bottom;" parent="y3mmZExF8sbPebz6QOZb-187" connectable="0" vertex="1">
          <mxGeometry x="-1" relative="1" as="geometry">
            <mxPoint y="-5" as="offset" />
          </mxGeometry>
        </mxCell>
        <mxCell id="y3mmZExF8sbPebz6QOZb-189" value="1" style="edgeLabel;resizable=0;html=1;align=right;verticalAlign=bottom;" parent="y3mmZExF8sbPebz6QOZb-187" connectable="0" vertex="1">
          <mxGeometry x="1" relative="1" as="geometry">
            <mxPoint x="10" y="20" as="offset" />
          </mxGeometry>
        </mxCell>
        <mxCell id="y3mmZExF8sbPebz6QOZb-190" value="" style="endArrow=none;html=1;rounded=0;exitX=0.224;exitY=0.99;exitDx=0;exitDy=0;entryX=0.25;entryY=0;entryDx=0;entryDy=0;exitPerimeter=0;" parent="1" source="y3mmZExF8sbPebz6QOZb-25" target="y3mmZExF8sbPebz6QOZb-32" edge="1">
          <mxGeometry relative="1" as="geometry">
            <mxPoint x="770" y="1075" as="sourcePoint" />
            <mxPoint x="850" y="1075" as="targetPoint" />
          </mxGeometry>
        </mxCell>
        <mxCell id="y3mmZExF8sbPebz6QOZb-191" value="1" style="edgeLabel;resizable=0;html=1;align=left;verticalAlign=bottom;" parent="y3mmZExF8sbPebz6QOZb-190" connectable="0" vertex="1">
          <mxGeometry x="-1" relative="1" as="geometry">
            <mxPoint y="17" as="offset" />
          </mxGeometry>
        </mxCell>
        <mxCell id="y3mmZExF8sbPebz6QOZb-192" value="n" style="edgeLabel;resizable=0;html=1;align=right;verticalAlign=bottom;" parent="y3mmZExF8sbPebz6QOZb-190" connectable="0" vertex="1">
          <mxGeometry x="1" relative="1" as="geometry">
            <mxPoint x="-4" as="offset" />
          </mxGeometry>
        </mxCell>
        <mxCell id="y3mmZExF8sbPebz6QOZb-193" value="" style="endArrow=none;html=1;rounded=0;exitX=1;exitY=0;exitDx=0;exitDy=0;entryX=0;entryY=0;entryDx=0;entryDy=0;" parent="1" source="y3mmZExF8sbPebz6QOZb-27" target="y3mmZExF8sbPebz6QOZb-25" edge="1">
          <mxGeometry relative="1" as="geometry">
            <mxPoint x="646" y="1364" as="sourcePoint" />
            <mxPoint x="646" y="1435" as="targetPoint" />
          </mxGeometry>
        </mxCell>
        <mxCell id="y3mmZExF8sbPebz6QOZb-194" value="n" style="edgeLabel;resizable=0;html=1;align=left;verticalAlign=bottom;" parent="y3mmZExF8sbPebz6QOZb-193" connectable="0" vertex="1">
          <mxGeometry x="-1" relative="1" as="geometry">
            <mxPoint y="17" as="offset" />
          </mxGeometry>
        </mxCell>
        <mxCell id="y3mmZExF8sbPebz6QOZb-195" value="1" style="edgeLabel;resizable=0;html=1;align=right;verticalAlign=bottom;" parent="y3mmZExF8sbPebz6QOZb-193" connectable="0" vertex="1">
          <mxGeometry x="1" relative="1" as="geometry">
            <mxPoint x="-4" as="offset" />
          </mxGeometry>
        </mxCell>
        <mxCell id="y3mmZExF8sbPebz6QOZb-196" value="" style="endArrow=none;html=1;rounded=0;exitX=-0.045;exitY=0.417;exitDx=0;exitDy=0;entryX=1;entryY=0.5;entryDx=0;entryDy=0;exitPerimeter=0;" parent="1" source="y3mmZExF8sbPebz6QOZb-29" target="y3mmZExF8sbPebz6QOZb-33" edge="1">
          <mxGeometry relative="1" as="geometry">
            <mxPoint x="910" y="1295" as="sourcePoint" />
            <mxPoint x="910" y="1366" as="targetPoint" />
            <Array as="points" />
          </mxGeometry>
        </mxCell>
        <mxCell id="y3mmZExF8sbPebz6QOZb-197" value="1" style="edgeLabel;resizable=0;html=1;align=left;verticalAlign=bottom;" parent="y3mmZExF8sbPebz6QOZb-196" connectable="0" vertex="1">
          <mxGeometry x="-1" relative="1" as="geometry">
            <mxPoint x="-10" as="offset" />
          </mxGeometry>
        </mxCell>
        <mxCell id="y3mmZExF8sbPebz6QOZb-198" value="n" style="edgeLabel;resizable=0;html=1;align=right;verticalAlign=bottom;" parent="y3mmZExF8sbPebz6QOZb-196" connectable="0" vertex="1">
          <mxGeometry x="1" relative="1" as="geometry">
            <mxPoint x="10" y="15" as="offset" />
          </mxGeometry>
        </mxCell>
        <mxCell id="y3mmZExF8sbPebz6QOZb-199" value="" style="endArrow=none;html=1;rounded=0;exitX=1;exitY=0;exitDx=0;exitDy=0;entryX=-0.027;entryY=0.058;entryDx=0;entryDy=0;entryPerimeter=0;" parent="1" source="y3mmZExF8sbPebz6QOZb-25" target="y3mmZExF8sbPebz6QOZb-30" edge="1">
          <mxGeometry relative="1" as="geometry">
            <mxPoint x="690" y="1230" as="sourcePoint" />
            <mxPoint x="1500" y="1320" as="targetPoint" />
            <Array as="points">
              <mxPoint x="1220" y="1270" />
            </Array>
          </mxGeometry>
        </mxCell>
        <mxCell id="y3mmZExF8sbPebz6QOZb-200" value="1" style="edgeLabel;resizable=0;html=1;align=left;verticalAlign=bottom;" parent="y3mmZExF8sbPebz6QOZb-199" connectable="0" vertex="1">
          <mxGeometry x="-1" relative="1" as="geometry">
            <mxPoint y="20" as="offset" />
          </mxGeometry>
        </mxCell>
        <mxCell id="y3mmZExF8sbPebz6QOZb-202" value="Schedule" style="swimlane;childLayout=stackLayout;horizontal=1;startSize=50;horizontalStack=0;rounded=1;fontSize=14;fontStyle=0;strokeWidth=2;resizeParent=0;resizeLast=1;shadow=0;dashed=0;align=center;arcSize=4;whiteSpace=wrap;html=1;" parent="1" vertex="1">
          <mxGeometry x="1420" y="670" width="160" height="155" as="geometry" />
        </mxCell>
        <mxCell id="y3mmZExF8sbPebz6QOZb-203" value="- Schedule_id&lt;br&gt;- Date&lt;br&gt;- Busy (Boolean)" style="align=left;strokeColor=none;fillColor=none;spacingLeft=4;fontSize=12;verticalAlign=top;resizable=0;rotatable=0;part=1;html=1;" parent="y3mmZExF8sbPebz6QOZb-202" vertex="1">
          <mxGeometry y="50" width="160" height="105" as="geometry" />
        </mxCell>
        <mxCell id="y3mmZExF8sbPebz6QOZb-204" value="Schedule_Detail" style="swimlane;childLayout=stackLayout;horizontal=1;startSize=50;horizontalStack=0;rounded=1;fontSize=14;fontStyle=0;strokeWidth=2;resizeParent=0;resizeLast=1;shadow=0;dashed=0;align=center;arcSize=4;whiteSpace=wrap;html=1;" parent="1" vertex="1">
          <mxGeometry x="1420" y="860" width="160" height="155" as="geometry" />
        </mxCell>
        <mxCell id="y3mmZExF8sbPebz6QOZb-205" value="- Schedule_Detail_id&lt;br&gt;- Schedule_id&lt;br&gt;- Host_id&lt;br&gt;" style="align=left;strokeColor=none;fillColor=none;spacingLeft=4;fontSize=12;verticalAlign=top;resizable=0;rotatable=0;part=1;html=1;" parent="y3mmZExF8sbPebz6QOZb-204" vertex="1">
          <mxGeometry y="50" width="160" height="105" as="geometry" />
        </mxCell>
        <mxCell id="y3mmZExF8sbPebz6QOZb-206" value="" style="endArrow=none;html=1;rounded=0;exitX=1;exitY=0;exitDx=0;exitDy=0;entryX=0;entryY=0;entryDx=0;entryDy=0;" parent="1" source="y3mmZExF8sbPebz6QOZb-21" target="y3mmZExF8sbPebz6QOZb-205" edge="1">
          <mxGeometry relative="1" as="geometry">
            <mxPoint x="1330" y="1025" as="sourcePoint" />
            <mxPoint x="1485" y="1185" as="targetPoint" />
          </mxGeometry>
        </mxCell>
        <mxCell id="y3mmZExF8sbPebz6QOZb-207" value="1" style="edgeLabel;resizable=0;html=1;align=left;verticalAlign=bottom;" parent="y3mmZExF8sbPebz6QOZb-206" connectable="0" vertex="1">
          <mxGeometry x="-1" relative="1" as="geometry">
            <mxPoint y="20" as="offset" />
          </mxGeometry>
        </mxCell>
        <mxCell id="y3mmZExF8sbPebz6QOZb-208" value="n" style="edgeLabel;resizable=0;html=1;align=right;verticalAlign=bottom;" parent="y3mmZExF8sbPebz6QOZb-206" connectable="0" vertex="1">
          <mxGeometry x="1" relative="1" as="geometry">
            <mxPoint as="offset" />
          </mxGeometry>
        </mxCell>
        <mxCell id="y3mmZExF8sbPebz6QOZb-209" value="" style="endArrow=none;html=1;rounded=0;exitX=0.5;exitY=1;exitDx=0;exitDy=0;entryX=0.5;entryY=0;entryDx=0;entryDy=0;" parent="1" source="y3mmZExF8sbPebz6QOZb-203" target="y3mmZExF8sbPebz6QOZb-204" edge="1">
          <mxGeometry relative="1" as="geometry">
            <mxPoint x="1370" y="920" as="sourcePoint" />
            <mxPoint x="1430" y="920" as="targetPoint" />
          </mxGeometry>
        </mxCell>
        <mxCell id="y3mmZExF8sbPebz6QOZb-210" value="1" style="edgeLabel;resizable=0;html=1;align=left;verticalAlign=bottom;" parent="y3mmZExF8sbPebz6QOZb-209" connectable="0" vertex="1">
          <mxGeometry x="-1" relative="1" as="geometry">
            <mxPoint y="20" as="offset" />
          </mxGeometry>
        </mxCell>
        <mxCell id="y3mmZExF8sbPebz6QOZb-211" value="n" style="edgeLabel;resizable=0;html=1;align=right;verticalAlign=bottom;" parent="y3mmZExF8sbPebz6QOZb-209" connectable="0" vertex="1">
          <mxGeometry x="1" relative="1" as="geometry">
            <mxPoint as="offset" />
          </mxGeometry>
        </mxCell>
        <mxCell id="y3mmZExF8sbPebz6QOZb-212" value="Create service" style="ellipse;whiteSpace=wrap;html=1;" parent="1" vertex="1">
          <mxGeometry x="900" y="1931.25" width="100" height="60" as="geometry" />
        </mxCell>
        <mxCell id="y3mmZExF8sbPebz6QOZb-213" value="Manage package, service" style="ellipse;whiteSpace=wrap;html=1;" parent="1" vertex="1">
          <mxGeometry x="900" y="2051.25" width="100" height="60" as="geometry" />
        </mxCell>
        <mxCell id="y3mmZExF8sbPebz6QOZb-214" value="Unauthorized guest" style="shape=umlActor;verticalLabelPosition=bottom;verticalAlign=top;html=1;outlineConnect=0;" parent="1" vertex="1">
          <mxGeometry x="1088.5" y="2545" width="30" height="60" as="geometry" />
        </mxCell>
        <mxCell id="y3mmZExF8sbPebz6QOZb-215" value="Logout" style="ellipse;whiteSpace=wrap;html=1;" parent="1" vertex="1">
          <mxGeometry x="685" y="2325" width="90" height="60" as="geometry" />
        </mxCell>
        <mxCell id="y3mmZExF8sbPebz6QOZb-216" value="Login" style="ellipse;whiteSpace=wrap;html=1;" parent="1" vertex="1">
          <mxGeometry x="908.5" y="2465" width="90" height="60" as="geometry" />
        </mxCell>
        <mxCell id="y3mmZExF8sbPebz6QOZb-217" value="Register" style="ellipse;whiteSpace=wrap;html=1;" parent="1" vertex="1">
          <mxGeometry x="908.5" y="2535" width="90" height="60" as="geometry" />
        </mxCell>
        <mxCell id="y3mmZExF8sbPebz6QOZb-218" value="View package &amp;amp; service" style="ellipse;whiteSpace=wrap;html=1;" parent="1" vertex="1">
          <mxGeometry x="908.5" y="2605" width="90" height="60" as="geometry" />
        </mxCell>
        <mxCell id="y3mmZExF8sbPebz6QOZb-219" value="" style="endArrow=none;html=1;rounded=0;exitX=1;exitY=0.5;exitDx=0;exitDy=0;entryX=0;entryY=0.3333333333333333;entryDx=0;entryDy=0;entryPerimeter=0;" parent="1" source="y3mmZExF8sbPebz6QOZb-216" target="y3mmZExF8sbPebz6QOZb-214" edge="1">
          <mxGeometry width="50" height="50" relative="1" as="geometry">
            <mxPoint x="1018.5" y="2525" as="sourcePoint" />
            <mxPoint x="1068.5" y="2475" as="targetPoint" />
          </mxGeometry>
        </mxCell>
        <mxCell id="y3mmZExF8sbPebz6QOZb-220" value="" style="endArrow=none;html=1;rounded=0;exitX=1;exitY=0.5;exitDx=0;exitDy=0;entryX=0;entryY=0.5;entryDx=0;entryDy=0;" parent="1" source="y3mmZExF8sbPebz6QOZb-10" target="y3mmZExF8sbPebz6QOZb-3" edge="1">
          <mxGeometry width="50" height="50" relative="1" as="geometry">
            <mxPoint x="595" y="2165" as="sourcePoint" />
            <mxPoint x="685" y="2165" as="targetPoint" />
          </mxGeometry>
        </mxCell>
        <mxCell id="y3mmZExF8sbPebz6QOZb-221" value="" style="endArrow=none;html=1;rounded=0;exitX=1;exitY=0.5;exitDx=0;exitDy=0;entryX=0;entryY=0.3333333333333333;entryDx=0;entryDy=0;entryPerimeter=0;" parent="1" source="y3mmZExF8sbPebz6QOZb-218" target="y3mmZExF8sbPebz6QOZb-214" edge="1">
          <mxGeometry width="50" height="50" relative="1" as="geometry">
            <mxPoint x="1008.5" y="2575" as="sourcePoint" />
            <mxPoint x="1058.5" y="2545" as="targetPoint" />
          </mxGeometry>
        </mxCell>
        <mxCell id="y3mmZExF8sbPebz6QOZb-222" value="Edit profile" style="ellipse;whiteSpace=wrap;html=1;" parent="1" vertex="1">
          <mxGeometry x="901.25" y="2111.25" width="100" height="60" as="geometry" />
        </mxCell>
        <mxCell id="y3mmZExF8sbPebz6QOZb-223" value="Manage booking schedule" style="ellipse;whiteSpace=wrap;html=1;" parent="1" vertex="1">
          <mxGeometry x="902.5" y="2231.25" width="100" height="60" as="geometry" />
        </mxCell>
        <mxCell id="y3mmZExF8sbPebz6QOZb-224" value="View feedback" style="ellipse;whiteSpace=wrap;html=1;" parent="1" vertex="1">
          <mxGeometry x="900" y="2171.25" width="100" height="60" as="geometry" />
        </mxCell>
        <mxCell id="y3mmZExF8sbPebz6QOZb-225" value="Create feedback" style="ellipse;whiteSpace=wrap;html=1;" parent="1" vertex="1">
          <mxGeometry x="465" y="2111.25" width="100" height="60" as="geometry" />
        </mxCell>
        <mxCell id="y3mmZExF8sbPebz6QOZb-226" value="Edit feedback" style="ellipse;whiteSpace=wrap;html=1;" parent="1" vertex="1">
          <mxGeometry x="465" y="2181.25" width="100" height="60" as="geometry" />
        </mxCell>
        <mxCell id="y3mmZExF8sbPebz6QOZb-227" value="" style="endArrow=none;html=1;rounded=0;exitX=1;exitY=0.5;exitDx=0;exitDy=0;entryX=0;entryY=0.5;entryDx=0;entryDy=0;" parent="1" source="y3mmZExF8sbPebz6QOZb-3" target="y3mmZExF8sbPebz6QOZb-4" edge="1">
          <mxGeometry width="50" height="50" relative="1" as="geometry">
            <mxPoint x="575" y="2008" as="sourcePoint" />
            <mxPoint x="650" y="2008" as="targetPoint" />
          </mxGeometry>
        </mxCell>
        <mxCell id="y3mmZExF8sbPebz6QOZb-228" value="Add to cart" style="ellipse;whiteSpace=wrap;html=1;" parent="1" vertex="1">
          <mxGeometry x="465" y="2038.75" width="100" height="60" as="geometry" />
        </mxCell>
        <mxCell id="y3mmZExF8sbPebz6QOZb-229" value="Pay for booking" style="ellipse;whiteSpace=wrap;html=1;" parent="1" vertex="1">
          <mxGeometry x="585" y="2038.75" width="100" height="60" as="geometry" />
        </mxCell>
        <mxCell id="y3mmZExF8sbPebz6QOZb-230" value="" style="endArrow=none;html=1;rounded=0;exitX=1;exitY=0.5;exitDx=0;exitDy=0;entryX=0;entryY=0.3333333333333333;entryDx=0;entryDy=0;entryPerimeter=0;" parent="1" source="y3mmZExF8sbPebz6QOZb-217" target="y3mmZExF8sbPebz6QOZb-214" edge="1">
          <mxGeometry width="50" height="50" relative="1" as="geometry">
            <mxPoint x="1008.5" y="2505" as="sourcePoint" />
            <mxPoint x="1088.5" y="2565" as="targetPoint" />
          </mxGeometry>
        </mxCell>
        <mxCell id="y3mmZExF8sbPebz6QOZb-231" value="" style="endArrow=none;html=1;rounded=0;exitX=1;exitY=0.5;exitDx=0;exitDy=0;entryX=0;entryY=0.5;entryDx=0;entryDy=0;" parent="1" source="y3mmZExF8sbPebz6QOZb-228" target="y3mmZExF8sbPebz6QOZb-229" edge="1">
          <mxGeometry width="50" height="50" relative="1" as="geometry">
            <mxPoint x="675" y="2153.25" as="sourcePoint" />
            <mxPoint x="765" y="2223.25" as="targetPoint" />
          </mxGeometry>
        </mxCell>
        <mxCell id="y3mmZExF8sbPebz6QOZb-232" value="" style="endArrow=none;html=1;rounded=0;exitX=1;exitY=0.3333333333333333;exitDx=0;exitDy=0;entryX=0;entryY=0.5;entryDx=0;entryDy=0;exitPerimeter=0;" parent="1" source="y3mmZExF8sbPebz6QOZb-1" target="y3mmZExF8sbPebz6QOZb-10" edge="1">
          <mxGeometry width="50" height="50" relative="1" as="geometry">
            <mxPoint x="575" y="2122.25" as="sourcePoint" />
            <mxPoint x="595" y="2122.25" as="targetPoint" />
          </mxGeometry>
        </mxCell>
        <mxCell id="y3mmZExF8sbPebz6QOZb-233" value="" style="endArrow=none;html=1;rounded=0;exitX=1;exitY=0.3333333333333333;exitDx=0;exitDy=0;entryX=0;entryY=0.5;entryDx=0;entryDy=0;exitPerimeter=0;" parent="1" source="y3mmZExF8sbPebz6QOZb-1" target="y3mmZExF8sbPebz6QOZb-228" edge="1">
          <mxGeometry width="50" height="50" relative="1" as="geometry">
            <mxPoint x="415" y="2151.25" as="sourcePoint" />
            <mxPoint x="475" y="2022.25" as="targetPoint" />
          </mxGeometry>
        </mxCell>
        <mxCell id="y3mmZExF8sbPebz6QOZb-234" value="" style="endArrow=none;html=1;rounded=0;exitX=1;exitY=0.3333333333333333;exitDx=0;exitDy=0;entryX=0;entryY=0.5;entryDx=0;entryDy=0;exitPerimeter=0;" parent="1" source="y3mmZExF8sbPebz6QOZb-1" target="y3mmZExF8sbPebz6QOZb-225" edge="1">
          <mxGeometry width="50" height="50" relative="1" as="geometry">
            <mxPoint x="415" y="2151.25" as="sourcePoint" />
            <mxPoint x="475" y="2122.25" as="targetPoint" />
          </mxGeometry>
        </mxCell>
        <mxCell id="y3mmZExF8sbPebz6QOZb-235" value="" style="endArrow=none;html=1;rounded=0;exitX=1;exitY=0.3333333333333333;exitDx=0;exitDy=0;entryX=0;entryY=0.5;entryDx=0;entryDy=0;exitPerimeter=0;" parent="1" source="y3mmZExF8sbPebz6QOZb-1" target="y3mmZExF8sbPebz6QOZb-11" edge="1">
          <mxGeometry width="50" height="50" relative="1" as="geometry">
            <mxPoint x="415" y="2151.25" as="sourcePoint" />
            <mxPoint x="475" y="2191.25" as="targetPoint" />
          </mxGeometry>
        </mxCell>
        <mxCell id="y3mmZExF8sbPebz6QOZb-236" value="" style="endArrow=none;html=1;rounded=0;exitX=1;exitY=0.3333333333333333;exitDx=0;exitDy=0;entryX=0;entryY=0.5;entryDx=0;entryDy=0;exitPerimeter=0;" parent="1" source="y3mmZExF8sbPebz6QOZb-1" target="y3mmZExF8sbPebz6QOZb-226" edge="1">
          <mxGeometry width="50" height="50" relative="1" as="geometry">
            <mxPoint x="415" y="2151.25" as="sourcePoint" />
            <mxPoint x="475" y="2311.25" as="targetPoint" />
          </mxGeometry>
        </mxCell>
        <mxCell id="y3mmZExF8sbPebz6QOZb-237" value="" style="endArrow=none;html=1;rounded=0;exitX=1;exitY=0.5;exitDx=0;exitDy=0;entryX=0;entryY=0.3333333333333333;entryDx=0;entryDy=0;entryPerimeter=0;" parent="1" source="y3mmZExF8sbPebz6QOZb-212" target="y3mmZExF8sbPebz6QOZb-13" edge="1">
          <mxGeometry width="50" height="50" relative="1" as="geometry">
            <mxPoint x="652.5" y="2041" as="sourcePoint" />
            <mxPoint x="672.5" y="2041" as="targetPoint" />
          </mxGeometry>
        </mxCell>
        <mxCell id="y3mmZExF8sbPebz6QOZb-238" value="" style="endArrow=none;html=1;rounded=0;exitX=1;exitY=0.5;exitDx=0;exitDy=0;entryX=0;entryY=0.3333333333333333;entryDx=0;entryDy=0;entryPerimeter=0;" parent="1" source="y3mmZExF8sbPebz6QOZb-14" target="y3mmZExF8sbPebz6QOZb-13" edge="1">
          <mxGeometry width="50" height="50" relative="1" as="geometry">
            <mxPoint x="1010.5" y="1985" as="sourcePoint" />
            <mxPoint x="1092.5" y="2115" as="targetPoint" />
          </mxGeometry>
        </mxCell>
        <mxCell id="y3mmZExF8sbPebz6QOZb-239" value="" style="endArrow=none;html=1;rounded=0;exitX=1;exitY=0.5;exitDx=0;exitDy=0;entryX=0;entryY=0.3333333333333333;entryDx=0;entryDy=0;entryPerimeter=0;" parent="1" source="y3mmZExF8sbPebz6QOZb-213" target="y3mmZExF8sbPebz6QOZb-13" edge="1">
          <mxGeometry width="50" height="50" relative="1" as="geometry">
            <mxPoint x="1010.5" y="2045" as="sourcePoint" />
            <mxPoint x="1102.5" y="2125" as="targetPoint" />
          </mxGeometry>
        </mxCell>
        <mxCell id="y3mmZExF8sbPebz6QOZb-240" value="" style="endArrow=none;html=1;rounded=0;exitX=1;exitY=0.5;exitDx=0;exitDy=0;entryX=0;entryY=0.3333333333333333;entryDx=0;entryDy=0;entryPerimeter=0;" parent="1" source="y3mmZExF8sbPebz6QOZb-222" target="y3mmZExF8sbPebz6QOZb-13" edge="1">
          <mxGeometry width="50" height="50" relative="1" as="geometry">
            <mxPoint x="1010.5" y="2105" as="sourcePoint" />
            <mxPoint x="1102.5" y="2125" as="targetPoint" />
          </mxGeometry>
        </mxCell>
        <mxCell id="y3mmZExF8sbPebz6QOZb-241" value="" style="endArrow=none;html=1;rounded=0;exitX=1;exitY=0.5;exitDx=0;exitDy=0;entryX=0;entryY=0.3333333333333333;entryDx=0;entryDy=0;entryPerimeter=0;" parent="1" source="y3mmZExF8sbPebz6QOZb-224" target="y3mmZExF8sbPebz6QOZb-13" edge="1">
          <mxGeometry width="50" height="50" relative="1" as="geometry">
            <mxPoint x="1011.5" y="2165" as="sourcePoint" />
            <mxPoint x="1102.5" y="2125" as="targetPoint" />
          </mxGeometry>
        </mxCell>
        <mxCell id="y3mmZExF8sbPebz6QOZb-242" value="" style="endArrow=none;html=1;rounded=0;exitX=1;exitY=0.5;exitDx=0;exitDy=0;entryX=0;entryY=0.3333333333333333;entryDx=0;entryDy=0;entryPerimeter=0;" parent="1" source="y3mmZExF8sbPebz6QOZb-223" target="y3mmZExF8sbPebz6QOZb-13" edge="1">
          <mxGeometry width="50" height="50" relative="1" as="geometry">
            <mxPoint x="1010.5" y="2225" as="sourcePoint" />
            <mxPoint x="1102.5" y="2125" as="targetPoint" />
          </mxGeometry>
        </mxCell>
        <mxCell id="y3mmZExF8sbPebz6QOZb-243" value="" style="endArrow=none;html=1;rounded=0;exitX=1;exitY=0.5;exitDx=0;exitDy=0;entryX=0;entryY=0.3333333333333333;entryDx=0;entryDy=0;entryPerimeter=0;" parent="1" source="y3mmZExF8sbPebz6QOZb-15" target="y3mmZExF8sbPebz6QOZb-13" edge="1">
          <mxGeometry width="50" height="50" relative="1" as="geometry">
            <mxPoint x="1012.5" y="2285" as="sourcePoint" />
            <mxPoint x="1102.5" y="2125" as="targetPoint" />
          </mxGeometry>
        </mxCell>
        <mxCell id="y3mmZExF8sbPebz6QOZb-244" value="" style="endArrow=none;html=1;rounded=0;exitX=1;exitY=0.3333333333333333;exitDx=0;exitDy=0;exitPerimeter=0;entryX=0;entryY=0.5;entryDx=0;entryDy=0;" parent="1" source="y3mmZExF8sbPebz6QOZb-5" target="y3mmZExF8sbPebz6QOZb-6" edge="1">
          <mxGeometry width="50" height="50" relative="1" as="geometry">
            <mxPoint x="411" y="2575" as="sourcePoint" />
            <mxPoint x="491" y="2451" as="targetPoint" />
          </mxGeometry>
        </mxCell>
        <mxCell id="y3mmZExF8sbPebz6QOZb-245" value="" style="endArrow=none;html=1;rounded=0;exitX=1;exitY=0.3333333333333333;exitDx=0;exitDy=0;exitPerimeter=0;entryX=0;entryY=0.5;entryDx=0;entryDy=0;" parent="1" source="y3mmZExF8sbPebz6QOZb-5" target="y3mmZExF8sbPebz6QOZb-7" edge="1">
          <mxGeometry width="50" height="50" relative="1" as="geometry">
            <mxPoint x="411" y="2575" as="sourcePoint" />
            <mxPoint x="491" y="2521" as="targetPoint" />
          </mxGeometry>
        </mxCell>
        <mxCell id="y3mmZExF8sbPebz6QOZb-246" value="" style="endArrow=none;html=1;rounded=0;exitX=1;exitY=0.3333333333333333;exitDx=0;exitDy=0;exitPerimeter=0;entryX=0;entryY=0.5;entryDx=0;entryDy=0;" parent="1" source="y3mmZExF8sbPebz6QOZb-5" target="y3mmZExF8sbPebz6QOZb-8" edge="1">
          <mxGeometry width="50" height="50" relative="1" as="geometry">
            <mxPoint x="411" y="2575" as="sourcePoint" />
            <mxPoint x="491" y="2591" as="targetPoint" />
          </mxGeometry>
        </mxCell>
        <mxCell id="y3mmZExF8sbPebz6QOZb-247" value="" style="endArrow=none;html=1;rounded=0;exitX=1;exitY=0.3333333333333333;exitDx=0;exitDy=0;exitPerimeter=0;entryX=0;entryY=0.5;entryDx=0;entryDy=0;" parent="1" source="y3mmZExF8sbPebz6QOZb-5" target="y3mmZExF8sbPebz6QOZb-16" edge="1">
          <mxGeometry width="50" height="50" relative="1" as="geometry">
            <mxPoint x="411" y="2575" as="sourcePoint" />
            <mxPoint x="491" y="2671" as="targetPoint" />
          </mxGeometry>
        </mxCell>
        <mxCell id="y3mmZExF8sbPebz6QOZb-248" value="" style="endArrow=none;html=1;rounded=0;exitX=1;exitY=0.5;exitDx=0;exitDy=0;entryX=0;entryY=0.5;entryDx=0;entryDy=0;" parent="1" source="y3mmZExF8sbPebz6QOZb-8" target="y3mmZExF8sbPebz6QOZb-9" edge="1">
          <mxGeometry width="50" height="50" relative="1" as="geometry">
            <mxPoint x="362" y="2555" as="sourcePoint" />
            <mxPoint x="577" y="2641.25" as="targetPoint" />
          </mxGeometry>
        </mxCell>
        <mxCell id="y3mmZExF8sbPebz6QOZb-249" value="" style="endArrow=none;html=1;rounded=0;entryX=0;entryY=0.5;entryDx=0;entryDy=0;" parent="1" target="y3mmZExF8sbPebz6QOZb-215" edge="1">
          <mxGeometry width="50" height="50" relative="1" as="geometry">
            <mxPoint x="390" y="2205" as="sourcePoint" />
            <mxPoint x="390" y="2345" as="targetPoint" />
            <Array as="points">
              <mxPoint x="390" y="2335" />
            </Array>
          </mxGeometry>
        </mxCell>
        <mxCell id="y3mmZExF8sbPebz6QOZb-250" value="" style="endArrow=none;html=1;rounded=0;entryX=0;entryY=0.5;entryDx=0;entryDy=0;exitX=0.5;exitY=0;exitDx=0;exitDy=0;exitPerimeter=0;" parent="1" source="y3mmZExF8sbPebz6QOZb-5" target="y3mmZExF8sbPebz6QOZb-215" edge="1">
          <mxGeometry width="50" height="50" relative="1" as="geometry">
            <mxPoint x="400" y="2215" as="sourcePoint" />
            <mxPoint x="690" y="2385" as="targetPoint" />
            <Array as="points">
              <mxPoint x="390" y="2395" />
            </Array>
          </mxGeometry>
        </mxCell>
        <mxCell id="y3mmZExF8sbPebz6QOZb-251" value="" style="endArrow=none;html=1;rounded=0;entryX=1;entryY=0.5;entryDx=0;entryDy=0;" parent="1" target="y3mmZExF8sbPebz6QOZb-215" edge="1">
          <mxGeometry width="50" height="50" relative="1" as="geometry">
            <mxPoint x="1110" y="2205" as="sourcePoint" />
            <mxPoint x="770" y="2375" as="targetPoint" />
            <Array as="points">
              <mxPoint x="1110" y="2365" />
            </Array>
          </mxGeometry>
        </mxCell>
        <mxCell id="y3mmZExF8sbPebz6QOZb-252" value="Payment_id" style="ellipse;whiteSpace=wrap;html=1;align=center;" parent="1" vertex="1">
          <mxGeometry x="2625" y="2135" width="100" height="40" as="geometry" />
        </mxCell>
        <mxCell id="y3mmZExF8sbPebz6QOZb-253" value="Payment_Date" style="ellipse;whiteSpace=wrap;html=1;align=center;" parent="1" vertex="1">
          <mxGeometry x="2700" y="2175" width="100" height="40" as="geometry" />
        </mxCell>
        <mxCell id="y3mmZExF8sbPebz6QOZb-254" value="Payment_Time" style="ellipse;whiteSpace=wrap;html=1;align=center;" parent="1" vertex="1">
          <mxGeometry x="2815" y="2171.25" width="100" height="40" as="geometry" />
        </mxCell>
        <mxCell id="y3mmZExF8sbPebz6QOZb-255" value="Bill_id" style="ellipse;whiteSpace=wrap;html=1;align=center;" parent="1" vertex="1">
          <mxGeometry x="2850" y="2120" width="100" height="40" as="geometry" />
        </mxCell>
        <mxCell id="y3mmZExF8sbPebz6QOZb-256" value="" style="endArrow=none;html=1;rounded=0;entryX=0.5;entryY=0;entryDx=0;entryDy=0;exitX=0.5;exitY=1;exitDx=0;exitDy=0;" parent="1" source="y3mmZExF8sbPebz6QOZb-78" target="y3mmZExF8sbPebz6QOZb-252" edge="1">
          <mxGeometry relative="1" as="geometry">
            <mxPoint x="2530" y="2018" as="sourcePoint" />
            <mxPoint x="2600" y="2041" as="targetPoint" />
          </mxGeometry>
        </mxCell>
        <mxCell id="y3mmZExF8sbPebz6QOZb-257" value="" style="endArrow=none;html=1;rounded=0;entryX=0.5;entryY=0;entryDx=0;entryDy=0;exitX=0.5;exitY=1;exitDx=0;exitDy=0;" parent="1" source="y3mmZExF8sbPebz6QOZb-78" target="y3mmZExF8sbPebz6QOZb-253" edge="1">
          <mxGeometry relative="1" as="geometry">
            <mxPoint x="2750" y="2126" as="sourcePoint" />
            <mxPoint x="2730" y="2165" as="targetPoint" />
          </mxGeometry>
        </mxCell>
        <mxCell id="y3mmZExF8sbPebz6QOZb-258" value="" style="endArrow=none;html=1;rounded=0;entryX=0.5;entryY=0;entryDx=0;entryDy=0;exitX=0.5;exitY=1;exitDx=0;exitDy=0;" parent="1" source="y3mmZExF8sbPebz6QOZb-78" target="y3mmZExF8sbPebz6QOZb-254" edge="1">
          <mxGeometry relative="1" as="geometry">
            <mxPoint x="2775" y="2126" as="sourcePoint" />
            <mxPoint x="2860" y="2165" as="targetPoint" />
          </mxGeometry>
        </mxCell>
        <mxCell id="y3mmZExF8sbPebz6QOZb-259" value="" style="endArrow=none;html=1;rounded=0;entryX=0;entryY=0.5;entryDx=0;entryDy=0;exitX=0.5;exitY=1;exitDx=0;exitDy=0;" parent="1" source="y3mmZExF8sbPebz6QOZb-78" target="y3mmZExF8sbPebz6QOZb-255" edge="1">
          <mxGeometry relative="1" as="geometry">
            <mxPoint x="2775" y="2126" as="sourcePoint" />
            <mxPoint x="2875" y="2181" as="targetPoint" />
          </mxGeometry>
        </mxCell>
        <mxCell id="y3mmZExF8sbPebz6QOZb-260" value="" style="endArrow=none;html=1;rounded=0;exitX=0.5;exitY=0;exitDx=0;exitDy=0;entryX=0;entryY=0.25;entryDx=0;entryDy=0;" parent="1" source="y3mmZExF8sbPebz6QOZb-20" target="y3mmZExF8sbPebz6QOZb-27" edge="1">
          <mxGeometry relative="1" as="geometry">
            <mxPoint x="770" y="1075" as="sourcePoint" />
            <mxPoint x="850" y="1075" as="targetPoint" />
            <Array as="points">
              <mxPoint x="1280" y="785" />
              <mxPoint x="270" y="785" />
              <mxPoint x="270" y="1281" />
            </Array>
          </mxGeometry>
        </mxCell>
        <mxCell id="y3mmZExF8sbPebz6QOZb-261" value="1" style="edgeLabel;resizable=0;html=1;align=left;verticalAlign=bottom;" parent="y3mmZExF8sbPebz6QOZb-260" connectable="0" vertex="1">
          <mxGeometry x="-1" relative="1" as="geometry">
            <mxPoint y="-5" as="offset" />
          </mxGeometry>
        </mxCell>
        <mxCell id="y3mmZExF8sbPebz6QOZb-262" value="n" style="edgeLabel;resizable=0;html=1;align=right;verticalAlign=bottom;" parent="y3mmZExF8sbPebz6QOZb-260" connectable="0" vertex="1">
          <mxGeometry x="1" relative="1" as="geometry">
            <mxPoint x="-4" as="offset" />
          </mxGeometry>
        </mxCell>
        <mxCell id="y3mmZExF8sbPebz6QOZb-263" value="" style="fontSize=12;html=1;endArrow=ERoneToMany;startArrow=ERmandOne;rounded=0;exitX=0.5;exitY=1;exitDx=0;exitDy=0;entryX=0.5;entryY=0;entryDx=0;entryDy=0;" parent="1" source="y3mmZExF8sbPebz6QOZb-51" target="y3mmZExF8sbPebz6QOZb-52" edge="1">
          <mxGeometry width="100" height="100" relative="1" as="geometry">
            <mxPoint x="2470" y="1655" as="sourcePoint" />
            <mxPoint x="2570" y="1555" as="targetPoint" />
          </mxGeometry>
        </mxCell>
        <mxCell id="y3mmZExF8sbPebz6QOZb-264" value="Bill_Detail" style="swimlane;childLayout=stackLayout;horizontal=1;startSize=50;horizontalStack=0;rounded=1;fontSize=14;fontStyle=0;strokeWidth=2;resizeParent=0;resizeLast=1;shadow=0;dashed=0;align=center;arcSize=4;whiteSpace=wrap;html=1;" parent="1" vertex="1">
          <mxGeometry x="340" y="1375" width="160" height="135" as="geometry" />
        </mxCell>
        <mxCell id="y3mmZExF8sbPebz6QOZb-265" value="- Bill_Detail_id&lt;br&gt;- Venue&lt;br&gt;- Guest_id&lt;br&gt;- Host_id&lt;br&gt;- Total_Price" style="align=left;strokeColor=none;fillColor=none;spacingLeft=4;fontSize=12;verticalAlign=top;resizable=0;rotatable=0;part=1;html=1;" parent="y3mmZExF8sbPebz6QOZb-264" vertex="1">
          <mxGeometry y="50" width="160" height="85" as="geometry" />
        </mxCell>
        <mxCell id="y3mmZExF8sbPebz6QOZb-266" value="" style="endArrow=none;html=1;rounded=0;exitX=0.5;exitY=0;exitDx=0;exitDy=0;entryX=0.5;entryY=1;entryDx=0;entryDy=0;" parent="1" source="y3mmZExF8sbPebz6QOZb-264" target="y3mmZExF8sbPebz6QOZb-27" edge="1">
          <mxGeometry relative="1" as="geometry">
            <mxPoint x="430" y="1230" as="sourcePoint" />
            <mxPoint x="430" y="1115" as="targetPoint" />
          </mxGeometry>
        </mxCell>
        <mxCell id="y3mmZExF8sbPebz6QOZb-267" value="1" style="edgeLabel;resizable=0;html=1;align=left;verticalAlign=bottom;" parent="y3mmZExF8sbPebz6QOZb-266" connectable="0" vertex="1">
          <mxGeometry x="-1" relative="1" as="geometry">
            <mxPoint y="-5" as="offset" />
          </mxGeometry>
        </mxCell>
        <mxCell id="y3mmZExF8sbPebz6QOZb-268" value="1" style="edgeLabel;resizable=0;html=1;align=right;verticalAlign=bottom;" parent="y3mmZExF8sbPebz6QOZb-266" connectable="0" vertex="1">
          <mxGeometry x="1" relative="1" as="geometry">
            <mxPoint x="10" y="20" as="offset" />
          </mxGeometry>
        </mxCell>
        <mxCell id="oMN-0fKkyGCDinNEPvyE-1" value="Facilities" style="swimlane;childLayout=stackLayout;horizontal=1;startSize=50;horizontalStack=0;rounded=1;fontSize=14;fontStyle=0;strokeWidth=2;resizeParent=0;resizeLast=1;shadow=0;dashed=0;align=center;arcSize=4;whiteSpace=wrap;html=1;" vertex="1" parent="1">
          <mxGeometry x="1192.5" y="1090" width="160" height="155" as="geometry" />
        </mxCell>
        <mxCell id="oMN-0fKkyGCDinNEPvyE-2" value="&lt;font style=&quot;font-size: 19px;&quot;&gt;-facilities_id&lt;br&gt;- host_id&lt;br&gt;- Address&lt;br&gt;- Name&lt;/font&gt;" style="align=left;strokeColor=none;fillColor=none;spacingLeft=4;fontSize=12;verticalAlign=top;resizable=0;rotatable=0;part=1;html=1;" vertex="1" parent="oMN-0fKkyGCDinNEPvyE-1">
          <mxGeometry y="50" width="160" height="105" as="geometry" />
        </mxCell>
        <mxCell id="oMN-0fKkyGCDinNEPvyE-5" value="" style="endArrow=none;html=1;rounded=0;exitX=0.5;exitY=1;exitDx=0;exitDy=0;entryX=0.558;entryY=0.015;entryDx=0;entryDy=0;entryPerimeter=0;" edge="1" parent="1" source="y3mmZExF8sbPebz6QOZb-21" target="oMN-0fKkyGCDinNEPvyE-1">
          <mxGeometry relative="1" as="geometry">
            <mxPoint x="1470" y="1100" as="sourcePoint" />
            <mxPoint x="1280" y="1080" as="targetPoint" />
            <Array as="points" />
          </mxGeometry>
        </mxCell>
        <mxCell id="oMN-0fKkyGCDinNEPvyE-6" value="1" style="edgeLabel;resizable=0;html=1;align=left;verticalAlign=bottom;" connectable="0" vertex="1" parent="oMN-0fKkyGCDinNEPvyE-5">
          <mxGeometry x="-1" relative="1" as="geometry">
            <mxPoint x="-10" y="15" as="offset" />
          </mxGeometry>
        </mxCell>
        <mxCell id="oMN-0fKkyGCDinNEPvyE-7" value="1" style="edgeLabel;resizable=0;html=1;align=right;verticalAlign=bottom;" connectable="0" vertex="1" parent="oMN-0fKkyGCDinNEPvyE-5">
          <mxGeometry x="1" relative="1" as="geometry">
            <mxPoint x="8" y="-12" as="offset" />
          </mxGeometry>
        </mxCell>
        <mxCell id="oMN-0fKkyGCDinNEPvyE-8" value="" style="endArrow=none;html=1;rounded=0;exitX=1.016;exitY=0.338;exitDx=0;exitDy=0;exitPerimeter=0;entryX=0.381;entryY=-0.021;entryDx=0;entryDy=0;entryPerimeter=0;" edge="1" parent="1" source="oMN-0fKkyGCDinNEPvyE-2" target="y3mmZExF8sbPebz6QOZb-30">
          <mxGeometry relative="1" as="geometry">
            <mxPoint x="1540" y="1150" as="sourcePoint" />
            <mxPoint x="1550" y="1300" as="targetPoint" />
          </mxGeometry>
        </mxCell>
        <mxCell id="oMN-0fKkyGCDinNEPvyE-9" value="1" style="edgeLabel;resizable=0;html=1;align=left;verticalAlign=bottom;" connectable="0" vertex="1" parent="oMN-0fKkyGCDinNEPvyE-8">
          <mxGeometry x="-1" relative="1" as="geometry">
            <mxPoint x="5" y="-2" as="offset" />
          </mxGeometry>
        </mxCell>
        <mxCell id="oMN-0fKkyGCDinNEPvyE-10" value="n" style="edgeLabel;resizable=0;html=1;align=right;verticalAlign=bottom;" connectable="0" vertex="1" parent="oMN-0fKkyGCDinNEPvyE-8">
          <mxGeometry x="1" relative="1" as="geometry">
            <mxPoint x="15" as="offset" />
          </mxGeometry>
        </mxCell>
        <mxCell id="oMN-0fKkyGCDinNEPvyE-11" value="" style="endArrow=none;html=1;rounded=0;entryX=0.75;entryY=0;entryDx=0;entryDy=0;" edge="1" parent="1" target="y3mmZExF8sbPebz6QOZb-28">
          <mxGeometry relative="1" as="geometry">
            <mxPoint x="1190" y="1190" as="sourcePoint" />
            <mxPoint x="1040" y="1310" as="targetPoint" />
          </mxGeometry>
        </mxCell>
        <mxCell id="oMN-0fKkyGCDinNEPvyE-12" value="1" style="edgeLabel;resizable=0;html=1;align=left;verticalAlign=bottom;" connectable="0" vertex="1" parent="oMN-0fKkyGCDinNEPvyE-11">
          <mxGeometry x="-1" relative="1" as="geometry">
            <mxPoint x="-15" y="-2" as="offset" />
          </mxGeometry>
        </mxCell>
        <mxCell id="oMN-0fKkyGCDinNEPvyE-13" value="n" style="edgeLabel;resizable=0;html=1;align=right;verticalAlign=bottom;" connectable="0" vertex="1" parent="oMN-0fKkyGCDinNEPvyE-11">
          <mxGeometry x="1" relative="1" as="geometry">
            <mxPoint x="9" y="-10" as="offset" />
          </mxGeometry>
        </mxCell>
        <mxCell id="oMN-0fKkyGCDinNEPvyE-14" value="1" style="edgeLabel;resizable=0;html=1;align=right;verticalAlign=bottom;" connectable="0" vertex="1" parent="1">
          <mxGeometry x="1470" y="1290" as="geometry">
            <mxPoint x="33" y="28" as="offset" />
          </mxGeometry>
        </mxCell>
      </root>
    </mxGraphModel>
  </diagram>
</mxfile>
